<svg width="24" height="24" viewBox="0 0 24 24" fill="none" xmlns="http://www.w3.org/2000/svg">
<path opacity="0.4" d="M22.5 12.3026V12.25V12.1974C22.5 10.0048 22.5 8.28277 22.3193 6.93848C22.1342 5.56182 21.7469 4.46953 20.8887 3.61133C20.0305 2.75313 18.9382 2.36575 17.5615 2.18066C16.2172 1.99998 14.4952 1.99999 12.3026 2H12.25H12.1974C10.0048 1.99999 8.28277 1.99998 6.93848 2.18066C5.56182 2.36575 4.46953 2.75313 3.61133 3.61133C2.75313 4.46953 2.36575 5.56182 2.18066 6.93848C1.99998 8.28277 1.99999 10.0048 2 12.1974V12.25V12.3026C1.99999 14.4952 1.99998 16.2172 2.18066 17.5615C2.36575 18.9382 2.75313 20.0305 3.61133 20.8887C4.46953 21.7469 5.56182 22.1342 6.93848 22.3193C8.28277 22.5 10.0048 22.5 12.1974 22.5H12.25H12.3026C14.4952 22.5 16.2172 22.5 17.5615 22.3193C18.9382 22.1342 20.0305 21.7469 20.8887 20.8887C21.7469 20.0305 22.1342 18.9382 22.3193 17.5615C22.5 16.2172 22.5 14.4952 22.5 12.3026Z" fill="#E0AC00"/>
<path d="M11 12.5V8C11 7.44772 11.4477 7 12 7C12.5523 7 13 7.44772 13 8V12.5C13 13.0523 12.5523 13.5 12 13.5C11.4477 13.5 11 13.0523 11 12.5Z" fill="#E0AC00"/>
<path d="M11 15.998V15.9883C11 15.436 11.4477 14.9883 12 14.9883C12.5523 14.9883 13 15.436 13 15.9883V15.998C13 16.5503 12.5523 16.998 12 16.998C11.4477 16.998 11 16.5503 11 15.998Z" fill="#E0AC00"/>
</svg>
