<svg width="18" height="18" viewBox="0 0 18 18" fill="none" xmlns="http://www.w3.org/2000/svg">
<path d="M14.25 7.125V7.1325M9.52291 2.625H8.47712C7.94117 2.625 7.67319 2.625 7.43287 2.709C7.28611 2.76029 7.14821 2.83409 7.02412 2.92775C6.82092 3.08112 6.67228 3.30408 6.375 3.75C6.22275 3.97839 5.99832 4.31503 5.90887 4.40903C5.68722 4.64195 5.39659 4.7975 5.07983 4.85272C4.952 4.875 4.81475 4.875 4.54027 4.875C3.80521 4.875 3.43769 4.875 3.13717 4.96006C2.38542 5.17287 1.79787 5.76041 1.58507 6.51217C1.5 6.81268 1.5 7.18021 1.5 7.91528V10.875C1.5 12.9963 1.5 14.0569 2.15901 14.716C2.81802 15.375 3.87868 15.375 6 15.375H12C14.1213 15.375 15.182 15.375 15.841 14.716C16.5 14.0569 16.5 12.9963 16.5 10.875V7.91528C16.5 7.18021 16.5 6.81268 16.415 6.51217C16.2021 5.76041 15.6146 5.17287 14.8628 4.96006C14.5623 4.875 14.1948 4.875 13.4597 4.875C13.1852 4.875 13.048 4.875 12.9202 4.85272C12.6034 4.7975 12.3128 4.64195 12.0911 4.40903C12.0017 4.31502 11.7773 3.97838 11.625 3.75C11.3277 3.30408 11.1791 3.08112 10.9759 2.92775C10.8518 2.83409 10.7139 2.76029 10.5671 2.709C10.3268 2.625 10.0589 2.625 9.52291 2.625ZM12 9.75C12 11.4068 10.6568 12.75 9.00002 12.75C7.34315 12.75 6 11.4068 6 9.75C6 8.09317 7.34315 6.75 9.00002 6.75C10.6568 6.75 12 8.09317 12 9.75Z" stroke="#FC6262" stroke-width="1.5" stroke-linecap="round" stroke-linejoin="round"/>
<path d="M14.25 7.125V7.1325M9.52291 2.625H8.47712C7.94117 2.625 7.67319 2.625 7.43287 2.709C7.28611 2.76029 7.14821 2.83409 7.02412 2.92775C6.82092 3.08112 6.67228 3.30408 6.375 3.75C6.22275 3.97839 5.99832 4.31503 5.90887 4.40903C5.68722 4.64195 5.39659 4.7975 5.07983 4.85272C4.952 4.875 4.81475 4.875 4.54027 4.875C3.80521 4.875 3.43769 4.875 3.13717 4.96006C2.38542 5.17287 1.79787 5.76041 1.58507 6.51217C1.5 6.81268 1.5 7.18021 1.5 7.91528V10.875C1.5 12.9963 1.5 14.0569 2.15901 14.716C2.81802 15.375 3.87868 15.375 6 15.375H12C14.1213 15.375 15.182 15.375 15.841 14.716C16.5 14.0569 16.5 12.9963 16.5 10.875V7.91528C16.5 7.18021 16.5 6.81268 16.415 6.51217C16.2021 5.76041 15.6146 5.17287 14.8628 4.96006C14.5623 4.875 14.1948 4.875 13.4597 4.875C13.1852 4.875 13.048 4.875 12.9202 4.85272C12.6034 4.7975 12.3128 4.64195 12.0911 4.40903C12.0017 4.31502 11.7773 3.97838 11.625 3.75C11.3277 3.30408 11.1791 3.08112 10.9759 2.92775C10.8518 2.83409 10.7139 2.76029 10.5671 2.709C10.3268 2.625 10.0589 2.625 9.52291 2.625ZM12 9.75C12 11.4068 10.6568 12.75 9.00002 12.75C7.34315 12.75 6 11.4068 6 9.75C6 8.09317 7.34315 6.75 9.00002 6.75C10.6568 6.75 12 8.09317 12 9.75Z" stroke="url(#paint0_linear_554_2377)" stroke-width="1.5" stroke-linecap="round" stroke-linejoin="round"/>
<defs>
<linearGradient id="paint0_linear_554_2377" x1="10.5858" y1="2.79341" x2="6.20663" y2="15.4552" gradientUnits="userSpaceOnUse">
<stop stop-color="#F56969"/>
<stop offset="1" stop-color="#E33269"/>
</linearGradient>
</defs>
</svg>
