<svg width="360" height="235" viewBox="0 0 360 235" fill="none" xmlns="http://www.w3.org/2000/svg">
<g clip-path="url(#clip0_574_6627)">
<g filter="url(#filter0_d_574_6627)">
<rect x="183" y="139" width="42" height="80" rx="9" fill="#F7F7F7"/>
<rect x="183.5" y="139.5" width="41" height="79" rx="8.5" stroke="#E8E8E8"/>
</g>
<rect x="279.5" y="74.5" width="41" height="144" rx="8.5" fill="#F7F7F7" stroke="#E8E8E8"/>
<g filter="url(#filter1_d_574_6627)">
<rect x="327" y="95" width="42" height="124" rx="9" fill="#F7F7F7"/>
<rect x="327.5" y="95.5" width="41" height="123" rx="8.5" stroke="#E8E8E8"/>
</g>
<g filter="url(#filter2_d_574_6627)">
<rect x="135" y="124" width="42" height="95" rx="9" fill="#F7F7F7"/>
<rect x="135.5" y="124.5" width="41" height="94" rx="8.5" stroke="#E8E8E8"/>
</g>
<g filter="url(#filter3_d_574_6627)">
<rect x="87" y="174" width="42" height="45" rx="9" fill="#F7F7F7"/>
<rect x="87.5" y="174.5" width="41" height="44" rx="8.5" stroke="#E8E8E8"/>
</g>
<g filter="url(#filter4_d_574_6627)">
<rect x="39" y="159" width="42" height="60" rx="9" fill="#F7F7F7"/>
<rect x="39.5" y="159.5" width="41" height="59" rx="8.5" stroke="#E8E8E8"/>
</g>
<g filter="url(#filter5_d_574_6627)">
<rect x="-9" y="190" width="42" height="29" rx="9" fill="#F7F7F7"/>
<rect x="-8.5" y="190.5" width="41" height="28" rx="8.5" stroke="#E8E8E8"/>
</g>
<line x1="142.5" y1="51.5" x2="261.5" y2="51.5" stroke="#E0E0E0" stroke-linecap="round" stroke-dasharray="5 5"/>
<line x1="141.5" y1="79.5" x2="141.5" y2="24.5" stroke="url(#paint0_linear_574_6627)" stroke-linecap="round"/>
<line x1="141.5" y1="79.5" x2="141.5" y2="24.5" stroke="url(#paint1_linear_574_6627)" stroke-linecap="round"/>
<g filter="url(#filter6_di_574_6627)">
<rect x="231" y="51" width="42" height="168" rx="9" fill="#D9D9D9"/>
<rect x="231" y="51" width="42" height="168" rx="9" fill="url(#paint2_linear_574_6627)"/>
</g>
<rect x="141" y="61" width="1" height="19" fill="url(#paint3_linear_574_6627)"/>
<rect width="1" height="19" transform="matrix(1 0 0 -1 141 43)" fill="url(#paint4_linear_574_6627)"/>
<rect x="305" width="59" height="235" fill="url(#paint5_linear_574_6627)"/>
<rect width="59" height="235" transform="matrix(-1 0 0 1 50 0)" fill="url(#paint6_linear_574_6627)"/>
<g filter="url(#filter7_d_574_6627)">
<rect x="16" y="16" width="126" height="71" rx="8" fill="#F7F7F7"/>
<rect x="16.5" y="16.5" width="125" height="70" rx="7.5" stroke="#E8E8E8"/>
<path d="M37.5677 29.9428C37.745 30.1914 37.8337 30.3158 37.8337 30.4998C37.8337 30.6839 37.745 30.8082 37.5677 31.0569C36.7708 32.1744 34.7357 34.5832 32.0003 34.5832C29.2649 34.5832 27.2299 32.1744 26.433 31.0569C26.2557 30.8082 26.167 30.6839 26.167 30.4998C26.167 30.3158 26.2557 30.1914 26.433 29.9428C27.2299 28.8253 29.2649 26.4165 32.0003 26.4165C34.7357 26.4165 36.7708 28.8253 37.5677 29.9428Z" stroke="#808080"/>
<path d="M37.5677 29.9428C37.745 30.1914 37.8337 30.3158 37.8337 30.4998C37.8337 30.6839 37.745 30.8082 37.5677 31.0569C36.7708 32.1744 34.7357 34.5832 32.0003 34.5832C29.2649 34.5832 27.2299 32.1744 26.433 31.0569C26.2557 30.8082 26.167 30.6839 26.167 30.4998C26.167 30.3158 26.2557 30.1914 26.433 29.9428C27.2299 28.8253 29.2649 26.4165 32.0003 26.4165C34.7357 26.4165 36.7708 28.8253 37.5677 29.9428Z" stroke="url(#paint7_linear_574_6627)"/>
<path d="M37.5677 29.9428C37.745 30.1914 37.8337 30.3158 37.8337 30.4998C37.8337 30.6839 37.745 30.8082 37.5677 31.0569C36.7708 32.1744 34.7357 34.5832 32.0003 34.5832C29.2649 34.5832 27.2299 32.1744 26.433 31.0569C26.2557 30.8082 26.167 30.6839 26.167 30.4998C26.167 30.3158 26.2557 30.1914 26.433 29.9428C27.2299 28.8253 29.2649 26.4165 32.0003 26.4165C34.7357 26.4165 36.7708 28.8253 37.5677 29.9428Z" stroke="url(#paint8_linear_574_6627)"/>
<path d="M33.7503 30.4998C33.7503 29.5333 32.9669 28.7498 32.0003 28.7498C31.0338 28.7498 30.2503 29.5333 30.2503 30.4998C30.2503 31.4664 31.0338 32.2498 32.0003 32.2498C32.9669 32.2498 33.7503 31.4664 33.7503 30.4998Z" stroke="#808080"/>
<path d="M33.7503 30.4998C33.7503 29.5333 32.9669 28.7498 32.0003 28.7498C31.0338 28.7498 30.2503 29.5333 30.2503 30.4998C30.2503 31.4664 31.0338 32.2498 32.0003 32.2498C32.9669 32.2498 33.7503 31.4664 33.7503 30.4998Z" stroke="url(#paint9_linear_574_6627)"/>
<path d="M33.7503 30.4998C33.7503 29.5333 32.9669 28.7498 32.0003 28.7498C31.0338 28.7498 30.2503 29.5333 30.2503 30.4998C30.2503 31.4664 31.0338 32.2498 32.0003 32.2498C32.9669 32.2498 33.7503 31.4664 33.7503 30.4998Z" stroke="url(#paint10_linear_574_6627)"/>
<path d="M48.1506 26.2727V35H46.8295V27.5938H46.7784L44.6903 28.9574V27.696L46.8679 26.2727H48.1506ZM51.3222 33.8068L51.2583 34.2713C51.2156 34.6122 51.1432 34.9673 51.0409 35.3366C50.9415 35.7088 50.8378 36.054 50.7298 36.3722C50.6247 36.6903 50.5381 36.9432 50.4699 37.1307H49.5665C49.6034 36.9545 49.6546 36.7159 49.7199 36.4148C49.7852 36.1165 49.8492 35.7827 49.9117 35.4134C49.9742 35.044 50.021 34.6676 50.0523 34.2841L50.0949 33.8068H51.3222ZM55.4664 35.1449C54.7931 35.142 54.2179 34.9645 53.7406 34.6122C53.2633 34.2599 52.8983 33.7472 52.6454 33.0739C52.3926 32.4006 52.2662 31.5895 52.2662 30.6406C52.2662 29.6946 52.3926 28.8864 52.6454 28.2159C52.9011 27.5455 53.2676 27.0341 53.7448 26.6818C54.225 26.3295 54.7988 26.1534 55.4664 26.1534C56.134 26.1534 56.7065 26.331 57.1838 26.6861C57.661 27.0384 58.0261 27.5497 58.2789 28.2202C58.5346 28.8878 58.6625 29.6946 58.6625 30.6406C58.6625 31.5923 58.536 32.4048 58.2832 33.0781C58.0304 33.7486 57.6653 34.2614 57.188 34.6165C56.7108 34.9688 56.1369 35.1449 55.4664 35.1449ZM55.4664 34.0071C56.0573 34.0071 56.519 33.7188 56.8514 33.142C57.1866 32.5653 57.3542 31.7315 57.3542 30.6406C57.3542 29.9162 57.2775 29.304 57.1241 28.804C56.9735 28.3011 56.7562 27.9205 56.4721 27.6619C56.1909 27.4006 55.8556 27.2699 55.4664 27.2699C54.8784 27.2699 54.4167 27.5597 54.0815 28.1392C53.7463 28.7187 53.5772 29.5526 53.5744 30.6406C53.5744 31.3679 53.6497 31.983 53.8002 32.4858C53.9537 32.9858 54.171 33.3651 54.4522 33.6236C54.7335 33.8793 55.0715 34.0071 55.4664 34.0071ZM62.8525 35.1449C62.1792 35.142 61.6039 34.9645 61.1267 34.6122C60.6494 34.2599 60.2843 33.7472 60.0315 33.0739C59.7787 32.4006 59.6522 31.5895 59.6522 30.6406C59.6522 29.6946 59.7787 28.8864 60.0315 28.2159C60.2872 27.5455 60.6537 27.0341 61.1309 26.6818C61.6111 26.3295 62.1849 26.1534 62.8525 26.1534C63.5201 26.1534 64.0926 26.331 64.5699 26.6861C65.0471 27.0384 65.4122 27.5497 65.665 28.2202C65.9207 28.8878 66.0486 29.6946 66.0486 30.6406C66.0486 31.5923 65.9221 32.4048 65.6693 33.0781C65.4164 33.7486 65.0514 34.2614 64.5741 34.6165C64.0968 34.9688 63.523 35.1449 62.8525 35.1449ZM62.8525 34.0071C63.4434 34.0071 63.9051 33.7188 64.2375 33.142C64.5727 32.5653 64.7403 31.7315 64.7403 30.6406C64.7403 29.9162 64.6636 29.304 64.5102 28.804C64.3596 28.3011 64.1423 27.9205 63.8582 27.6619C63.577 27.4006 63.2417 27.2699 62.8525 27.2699C62.2645 27.2699 61.8028 27.5597 61.4676 28.1392C61.1324 28.7187 60.9633 29.5526 60.9605 30.6406C60.9605 31.3679 61.0358 31.983 61.1863 32.4858C61.3397 32.9858 61.5571 33.3651 61.8383 33.6236C62.1196 33.8793 62.4576 34.0071 62.8525 34.0071ZM70.2386 35.1449C69.5653 35.142 68.99 34.9645 68.5128 34.6122C68.0355 34.2599 67.6704 33.7472 67.4176 33.0739C67.1648 32.4006 67.0383 31.5895 67.0383 30.6406C67.0383 29.6946 67.1648 28.8864 67.4176 28.2159C67.6733 27.5455 68.0398 27.0341 68.517 26.6818C68.9971 26.3295 69.571 26.1534 70.2386 26.1534C70.9062 26.1534 71.4787 26.331 71.956 26.6861C72.4332 27.0384 72.7983 27.5497 73.0511 28.2202C73.3068 28.8878 73.4346 29.6946 73.4346 30.6406C73.4346 31.5923 73.3082 32.4048 73.0554 33.0781C72.8025 33.7486 72.4375 34.2614 71.9602 34.6165C71.4829 34.9688 70.9091 35.1449 70.2386 35.1449ZM70.2386 34.0071C70.8295 34.0071 71.2912 33.7188 71.6236 33.142C71.9588 32.5653 72.1264 31.7315 72.1264 30.6406C72.1264 29.9162 72.0497 29.304 71.8963 28.804C71.7457 28.3011 71.5284 27.9205 71.2443 27.6619C70.9631 27.4006 70.6278 27.2699 70.2386 27.2699C69.6506 27.2699 69.1889 27.5597 68.8537 28.1392C68.5185 28.7187 68.3494 29.5526 68.3466 30.6406C68.3466 31.3679 68.4219 31.983 68.5724 32.4858C68.7258 32.9858 68.9432 33.3651 69.2244 33.6236C69.5057 33.8793 69.8437 34.0071 70.2386 34.0071ZM75.9447 33.8068L75.8808 34.2713C75.8381 34.6122 75.7657 34.9673 75.6634 35.3366C75.564 35.7088 75.4603 36.054 75.3523 36.3722C75.2472 36.6903 75.1606 36.9432 75.0924 37.1307H74.189C74.2259 36.9545 74.2771 36.7159 74.3424 36.4148C74.4077 36.1165 74.4717 35.7827 74.5342 35.4134C74.5967 35.044 74.6435 34.6676 74.6748 34.2841L74.7174 33.8068H75.9447ZM80.0889 35.1449C79.4156 35.142 78.8404 34.9645 78.3631 34.6122C77.8858 34.2599 77.5208 33.7472 77.2679 33.0739C77.0151 32.4006 76.8887 31.5895 76.8887 30.6406C76.8887 29.6946 77.0151 28.8864 77.2679 28.2159C77.5236 27.5455 77.8901 27.0341 78.3673 26.6818C78.8475 26.3295 79.4213 26.1534 80.0889 26.1534C80.7565 26.1534 81.329 26.331 81.8063 26.6861C82.2835 27.0384 82.6486 27.5497 82.9014 28.2202C83.1571 28.8878 83.285 29.6946 83.285 30.6406C83.285 31.5923 83.1585 32.4048 82.9057 33.0781C82.6529 33.7486 82.2878 34.2614 81.8105 34.6165C81.3333 34.9688 80.7594 35.1449 80.0889 35.1449ZM80.0889 34.0071C80.6798 34.0071 81.1415 33.7188 81.4739 33.142C81.8091 32.5653 81.9767 31.7315 81.9767 30.6406C81.9767 29.9162 81.9 29.304 81.7466 28.804C81.596 28.3011 81.3787 27.9205 81.0946 27.6619C80.8134 27.4006 80.4781 27.2699 80.0889 27.2699C79.5009 27.2699 79.0392 27.5597 78.704 28.1392C78.3688 28.7187 78.1997 29.5526 78.1969 30.6406C78.1969 31.3679 78.2722 31.983 78.4227 32.4858C78.5762 32.9858 78.7935 33.3651 79.0747 33.6236C79.356 33.8793 79.694 34.0071 80.0889 34.0071ZM87.475 35.1449C86.8017 35.142 86.2264 34.9645 85.7492 34.6122C85.2719 34.2599 84.9068 33.7472 84.654 33.0739C84.4012 32.4006 84.2747 31.5895 84.2747 30.6406C84.2747 29.6946 84.4012 28.8864 84.654 28.2159C84.9097 27.5455 85.2762 27.0341 85.7534 26.6818C86.2336 26.3295 86.8074 26.1534 87.475 26.1534C88.1426 26.1534 88.7151 26.331 89.1924 26.6861C89.6696 27.0384 90.0347 27.5497 90.2875 28.2202C90.5432 28.8878 90.6711 29.6946 90.6711 30.6406C90.6711 31.5923 90.5446 32.4048 90.2918 33.0781C90.0389 33.7486 89.6739 34.2614 89.1966 34.6165C88.7193 34.9688 88.1455 35.1449 87.475 35.1449ZM87.475 34.0071C88.0659 34.0071 88.5276 33.7188 88.86 33.142C89.1952 32.5653 89.3628 31.7315 89.3628 30.6406C89.3628 29.9162 89.2861 29.304 89.1327 28.804C88.9821 28.3011 88.7648 27.9205 88.4807 27.6619C88.1995 27.4006 87.8642 27.2699 87.475 27.2699C86.887 27.2699 86.4253 27.5597 86.0901 28.1392C85.7549 28.7187 85.5858 29.5526 85.583 30.6406C85.583 31.3679 85.6583 31.983 85.8088 32.4858C85.9622 32.9858 86.1796 33.3651 86.4608 33.6236C86.7421 33.8793 87.0801 34.0071 87.475 34.0071ZM94.8611 35.1449C94.1878 35.142 93.6125 34.9645 93.1353 34.6122C92.658 34.2599 92.2929 33.7472 92.0401 33.0739C91.7873 32.4006 91.6608 31.5895 91.6608 30.6406C91.6608 29.6946 91.7873 28.8864 92.0401 28.2159C92.2958 27.5455 92.6623 27.0341 93.1395 26.6818C93.6196 26.3295 94.1935 26.1534 94.8611 26.1534C95.5287 26.1534 96.1012 26.331 96.5785 26.6861C97.0557 27.0384 97.4208 27.5497 97.6736 28.2202C97.9293 28.8878 98.0571 29.6946 98.0571 30.6406C98.0571 31.5923 97.9307 32.4048 97.6779 33.0781C97.425 33.7486 97.06 34.2614 96.5827 34.6165C96.1054 34.9688 95.5316 35.1449 94.8611 35.1449ZM94.8611 34.0071C95.452 34.0071 95.9137 33.7188 96.2461 33.142C96.5813 32.5653 96.7489 31.7315 96.7489 30.6406C96.7489 29.9162 96.6722 29.304 96.5188 28.804C96.3682 28.3011 96.1509 27.9205 95.8668 27.6619C95.5856 27.4006 95.2503 27.2699 94.8611 27.2699C94.2731 27.2699 93.8114 27.5597 93.4762 28.1392C93.141 28.7187 92.9719 29.5526 92.9691 30.6406C92.9691 31.3679 93.0444 31.983 93.1949 32.4858C93.3483 32.9858 93.5657 33.3651 93.8469 33.6236C94.1282 33.8793 94.4662 34.0071 94.8611 34.0071Z" fill="#141414"/>
<path d="M107.641 28.4545L105.268 35H103.904L101.526 28.4545H102.894L104.552 33.4915H104.62L106.273 28.4545H107.641ZM108.479 35V28.4545H109.753V35H108.479ZM109.122 27.4446C108.9 27.4446 108.71 27.3707 108.551 27.223C108.395 27.0724 108.317 26.8935 108.317 26.6861C108.317 26.4759 108.395 26.2969 108.551 26.1491C108.71 25.9986 108.9 25.9233 109.122 25.9233C109.344 25.9233 109.533 25.9986 109.689 26.1491C109.848 26.2969 109.927 26.4759 109.927 26.6861C109.927 26.8935 109.848 27.0724 109.689 27.223C109.533 27.3707 109.344 27.4446 109.122 27.4446ZM113.928 35.1321C113.283 35.1321 112.728 34.9943 112.262 34.7188C111.799 34.4403 111.441 34.0497 111.188 33.5469C110.938 33.0412 110.813 32.4489 110.813 31.7699C110.813 31.0994 110.938 30.5085 111.188 29.9972C111.441 29.4858 111.793 29.0866 112.245 28.7997C112.699 28.5128 113.23 28.3693 113.838 28.3693C114.208 28.3693 114.566 28.4304 114.912 28.5526C115.259 28.6747 115.57 28.8665 115.845 29.1278C116.121 29.3892 116.338 29.7287 116.497 30.1463C116.657 30.5611 116.736 31.0653 116.736 31.6591V32.1108H111.533V31.1562H115.488C115.488 30.821 115.419 30.5241 115.283 30.2656C115.147 30.0043 114.955 29.7983 114.708 29.6477C114.463 29.4972 114.176 29.4219 113.847 29.4219C113.489 29.4219 113.176 29.5099 112.909 29.6861C112.645 29.8594 112.441 30.0866 112.296 30.3679C112.154 30.6463 112.083 30.9489 112.083 31.2756V32.0213C112.083 32.4588 112.159 32.831 112.313 33.1378C112.469 33.4446 112.686 33.679 112.965 33.8409C113.243 34 113.568 34.0795 113.941 34.0795C114.182 34.0795 114.402 34.0455 114.601 33.9773C114.8 33.9062 114.972 33.8011 115.117 33.6619C115.262 33.5227 115.372 33.3509 115.449 33.1463L116.655 33.3636C116.559 33.7187 116.385 34.0298 116.135 34.2969C115.888 34.5611 115.577 34.767 115.202 34.9148C114.83 35.0597 114.405 35.1321 113.928 35.1321ZM119.197 35L117.271 28.4545H118.588L119.87 33.2614H119.934L121.221 28.4545H122.538L123.816 33.2401H123.88L125.155 28.4545H126.471L124.549 35H123.25L121.92 30.2741H121.822L120.493 35H119.197ZM132.225 30.0526L131.07 30.2571C131.022 30.1094 130.945 29.9687 130.84 29.8352C130.738 29.7017 130.599 29.5923 130.423 29.5071C130.247 29.4219 130.026 29.3793 129.762 29.3793C129.401 29.3793 129.1 29.4602 128.859 29.6222C128.617 29.7812 128.497 29.9872 128.497 30.2401C128.497 30.4588 128.578 30.6349 128.739 30.7685C128.901 30.902 129.163 31.0114 129.524 31.0966L130.563 31.3352C131.166 31.4744 131.614 31.6889 131.91 31.9787C132.205 32.2685 132.353 32.6449 132.353 33.108C132.353 33.5 132.239 33.8494 132.012 34.1562C131.788 34.4602 131.474 34.6989 131.07 34.8722C130.67 35.0455 130.205 35.1321 129.677 35.1321C128.944 35.1321 128.346 34.9759 127.883 34.6634C127.42 34.348 127.136 33.9006 127.031 33.321L128.262 33.1335C128.339 33.4545 128.497 33.6974 128.735 33.8622C128.974 34.0241 129.285 34.1051 129.668 34.1051C130.086 34.1051 130.42 34.0185 130.67 33.8452C130.92 33.669 131.045 33.4545 131.045 33.2017C131.045 32.9972 130.968 32.8253 130.815 32.6861C130.664 32.5469 130.433 32.4418 130.12 32.3707L129.012 32.1278C128.401 31.9886 127.95 31.767 127.657 31.4631C127.367 31.1591 127.222 30.7741 127.222 30.3082C127.222 29.9219 127.33 29.5838 127.546 29.294C127.762 29.0043 128.06 28.7784 128.441 28.6165C128.822 28.4517 129.258 28.3693 129.749 28.3693C130.457 28.3693 131.014 28.5227 131.42 28.8295C131.826 29.1335 132.095 29.5412 132.225 30.0526Z" fill="#808080"/>
<path d="M27.9798 52.8915L28.2588 49.1155C28.2779 48.8565 28.2941 48.6134 28.3092 48.3859C28.4129 46.8237 28.4681 45.9924 29.1117 45.7305C29.7553 45.4686 30.3683 46.028 31.5203 47.0792C31.6881 47.2322 31.8673 47.3958 32.0597 47.5687L34.8646 50.0898C35.6535 50.7988 36.048 51.1535 36.0798 51.4931C36.1017 51.7263 36.0292 51.9585 35.8788 52.1371C35.6597 52.3973 35.1348 52.4608 34.085 52.5876C33.6428 52.641 33.4216 52.6677 33.2879 52.7854C33.1949 52.8672 33.1306 52.9769 33.1043 53.0984C33.0665 53.2731 33.1499 53.4811 33.3167 53.897L34.1816 56.0532C34.2816 56.3023 34.3315 56.4269 34.3307 56.5415C34.3297 56.6961 34.2674 56.8437 34.1578 56.9518C34.0765 57.032 33.9528 57.0823 33.7055 57.183C33.4582 57.2836 33.3346 57.3339 33.2207 57.3332C33.0674 57.3321 32.9207 57.2694 32.8134 57.159C32.7338 57.0771 32.6838 56.9525 32.5839 56.7034L31.719 54.5472C31.5522 54.1313 31.4687 53.9233 31.321 53.8241C31.2184 53.7551 31.0963 53.7212 30.9731 53.7274C30.7957 53.7363 30.6183 53.8718 30.2633 54.1428C29.4206 54.7862 28.9993 55.1078 28.6622 55.0739C28.4308 55.0506 28.2186 54.9343 28.0735 54.7513C27.8621 54.4847 27.9014 53.9536 27.9798 52.8915Z" stroke="#808080" stroke-linejoin="round"/>
<path d="M27.9798 52.8915L28.2588 49.1155C28.2779 48.8565 28.2941 48.6134 28.3092 48.3859C28.4129 46.8237 28.4681 45.9924 29.1117 45.7305C29.7553 45.4686 30.3683 46.028 31.5203 47.0792C31.6881 47.2322 31.8673 47.3958 32.0597 47.5687L34.8646 50.0898C35.6535 50.7988 36.048 51.1535 36.0798 51.4931C36.1017 51.7263 36.0292 51.9585 35.8788 52.1371C35.6597 52.3973 35.1348 52.4608 34.085 52.5876C33.6428 52.641 33.4216 52.6677 33.2879 52.7854C33.1949 52.8672 33.1306 52.9769 33.1043 53.0984C33.0665 53.2731 33.1499 53.4811 33.3167 53.897L34.1816 56.0532C34.2816 56.3023 34.3315 56.4269 34.3307 56.5415C34.3297 56.6961 34.2674 56.8437 34.1578 56.9518C34.0765 57.032 33.9528 57.0823 33.7055 57.183C33.4582 57.2836 33.3346 57.3339 33.2207 57.3332C33.0674 57.3321 32.9207 57.2694 32.8134 57.159C32.7338 57.0771 32.6838 56.9525 32.5839 56.7034L31.719 54.5472C31.5522 54.1313 31.4687 53.9233 31.321 53.8241C31.2184 53.7551 31.0963 53.7212 30.9731 53.7274C30.7957 53.7363 30.6183 53.8718 30.2633 54.1428C29.4206 54.7862 28.9993 55.1078 28.6622 55.0739C28.4308 55.0506 28.2186 54.9343 28.0735 54.7513C27.8621 54.4847 27.9014 53.9536 27.9798 52.8915Z" stroke="url(#paint11_linear_574_6627)" stroke-linejoin="round"/>
<path d="M44.8395 56V55.0455L47.7926 51.9858C48.108 51.6534 48.3679 51.3622 48.5724 51.1122C48.7798 50.8594 48.9347 50.6193 49.0369 50.392C49.1392 50.1648 49.1903 49.9233 49.1903 49.6676C49.1903 49.3778 49.1222 49.1278 48.9858 48.9176C48.8494 48.7045 48.6634 48.5412 48.4276 48.4276C48.1918 48.3111 47.9261 48.2528 47.6307 48.2528C47.3182 48.2528 47.0455 48.3168 46.8125 48.4446C46.5795 48.5724 46.4006 48.7528 46.2756 48.9858C46.1506 49.2187 46.0881 49.4915 46.0881 49.804H44.831C44.831 49.2727 44.9531 48.8082 45.1974 48.4105C45.4418 48.0128 45.777 47.7045 46.2031 47.4858C46.6293 47.2642 47.1136 47.1534 47.6562 47.1534C48.2045 47.1534 48.6875 47.2628 49.1051 47.4815C49.5256 47.6974 49.8537 47.9929 50.0895 48.3679C50.3253 48.7401 50.4432 49.1605 50.4432 49.6293C50.4432 49.9531 50.3821 50.2699 50.2599 50.5795C50.1406 50.8892 49.9318 51.2344 49.6335 51.6151C49.3352 51.9929 48.9205 52.4517 48.3892 52.9915L46.6548 54.8068V54.8707H50.5838V56H44.8395ZM54.8772 56.1449C54.2039 56.142 53.6286 55.9645 53.1514 55.6122C52.6741 55.2599 52.309 54.7472 52.0562 54.0739C51.8034 53.4006 51.6769 52.5895 51.6769 51.6406C51.6769 50.6946 51.8034 49.8864 52.0562 49.2159C52.3119 48.5455 52.6784 48.0341 53.1556 47.6818C53.6357 47.3295 54.2096 47.1534 54.8772 47.1534C55.5448 47.1534 56.1173 47.331 56.5945 47.6861C57.0718 48.0384 57.4369 48.5497 57.6897 49.2202C57.9454 49.8878 58.0732 50.6946 58.0732 51.6406C58.0732 52.5923 57.9468 53.4048 57.694 54.0781C57.4411 54.7486 57.0761 55.2614 56.5988 55.6165C56.1215 55.9688 55.5477 56.1449 54.8772 56.1449ZM54.8772 55.0071C55.4681 55.0071 55.9298 54.7188 56.2622 54.142C56.5974 53.5653 56.765 52.7315 56.765 51.6406C56.765 50.9162 56.6883 50.304 56.5349 49.804C56.3843 49.3011 56.167 48.9205 55.8829 48.6619C55.6016 48.4006 55.2664 48.2699 54.8772 48.2699C54.2891 48.2699 53.8275 48.5597 53.4923 49.1392C53.157 49.7187 52.988 50.5526 52.9852 51.6406C52.9852 52.3679 53.0605 52.983 53.211 53.4858C53.3644 53.9858 53.5818 54.3651 53.863 54.6236C54.1443 54.8793 54.4823 55.0071 54.8772 55.0071ZM60.5833 54.8068L60.5193 55.2713C60.4767 55.6122 60.4043 55.9673 60.302 56.3366C60.2026 56.7088 60.0989 57.054 59.9909 57.3722C59.8858 57.6903 59.7992 57.9432 59.731 58.1307H58.8276C58.8645 57.9545 58.9157 57.7159 58.981 57.4148C59.0463 57.1165 59.1103 56.7827 59.1728 56.4134C59.2353 56.044 59.2821 55.6676 59.3134 55.2841L59.356 54.8068H60.5833ZM64.7275 56.1449C64.0542 56.142 63.4789 55.9645 63.0017 55.6122C62.5244 55.2599 62.1593 54.7472 61.9065 54.0739C61.6537 53.4006 61.5272 52.5895 61.5272 51.6406C61.5272 50.6946 61.6537 49.8864 61.9065 49.2159C62.1622 48.5455 62.5287 48.0341 63.0059 47.6818C63.4861 47.3295 64.0599 47.1534 64.7275 47.1534C65.3951 47.1534 65.9676 47.331 66.4449 47.6861C66.9221 48.0384 67.2872 48.5497 67.54 49.2202C67.7957 49.8878 67.9236 50.6946 67.9236 51.6406C67.9236 52.5923 67.7971 53.4048 67.5443 54.0781C67.2914 54.7486 66.9264 55.2614 66.4491 55.6165C65.9718 55.9688 65.398 56.1449 64.7275 56.1449ZM64.7275 55.0071C65.3184 55.0071 65.7801 54.7188 66.1125 54.142C66.4477 53.5653 66.6153 52.7315 66.6153 51.6406C66.6153 50.9162 66.5386 50.304 66.3852 49.804C66.2346 49.3011 66.0173 48.9205 65.7332 48.6619C65.452 48.4006 65.1167 48.2699 64.7275 48.2699C64.1395 48.2699 63.6778 48.5597 63.3426 49.1392C63.0074 49.7187 62.8383 50.5526 62.8355 51.6406C62.8355 52.3679 62.9108 52.983 63.0613 53.4858C63.2147 53.9858 63.4321 54.3651 63.7133 54.6236C63.9946 54.8793 64.3326 55.0071 64.7275 55.0071ZM72.1136 56.1449C71.4403 56.142 70.865 55.9645 70.3878 55.6122C69.9105 55.2599 69.5454 54.7472 69.2926 54.0739C69.0398 53.4006 68.9133 52.5895 68.9133 51.6406C68.9133 50.6946 69.0398 49.8864 69.2926 49.2159C69.5483 48.5455 69.9148 48.0341 70.392 47.6818C70.8721 47.3295 71.446 47.1534 72.1136 47.1534C72.7812 47.1534 73.3537 47.331 73.831 47.6861C74.3082 48.0384 74.6733 48.5497 74.9261 49.2202C75.1818 49.8878 75.3096 50.6946 75.3096 51.6406C75.3096 52.5923 75.1832 53.4048 74.9304 54.0781C74.6775 54.7486 74.3125 55.2614 73.8352 55.6165C73.3579 55.9688 72.7841 56.1449 72.1136 56.1449ZM72.1136 55.0071C72.7045 55.0071 73.1662 54.7188 73.4986 54.142C73.8338 53.5653 74.0014 52.7315 74.0014 51.6406C74.0014 50.9162 73.9247 50.304 73.7713 49.804C73.6207 49.3011 73.4034 48.9205 73.1193 48.6619C72.8381 48.4006 72.5028 48.2699 72.1136 48.2699C71.5256 48.2699 71.0639 48.5597 70.7287 49.1392C70.3935 49.7187 70.2244 50.5526 70.2216 51.6406C70.2216 52.3679 70.2969 52.983 70.4474 53.4858C70.6008 53.9858 70.8182 54.3651 71.0994 54.6236C71.3807 54.8793 71.7187 55.0071 72.1136 55.0071ZM79.4997 56.1449C78.8264 56.142 78.2511 55.9645 77.7739 55.6122C77.2966 55.2599 76.9315 54.7472 76.6787 54.0739C76.4259 53.4006 76.2994 52.5895 76.2994 51.6406C76.2994 50.6946 76.4259 49.8864 76.6787 49.2159C76.9344 48.5455 77.3009 48.0341 77.7781 47.6818C78.2582 47.3295 78.8321 47.1534 79.4997 47.1534C80.1673 47.1534 80.7398 47.331 81.217 47.6861C81.6943 48.0384 82.0594 48.5497 82.3122 49.2202C82.5679 49.8878 82.6957 50.6946 82.6957 51.6406C82.6957 52.5923 82.5693 53.4048 82.3165 54.0781C82.0636 54.7486 81.6986 55.2614 81.2213 55.6165C80.744 55.9688 80.1702 56.1449 79.4997 56.1449ZM79.4997 55.0071C80.0906 55.0071 80.5523 54.7188 80.8847 54.142C81.2199 53.5653 81.3875 52.7315 81.3875 51.6406C81.3875 50.9162 81.3108 50.304 81.1574 49.804C81.0068 49.3011 80.7895 48.9205 80.5054 48.6619C80.2241 48.4006 79.8889 48.2699 79.4997 48.2699C78.9116 48.2699 78.45 48.5597 78.1148 49.1392C77.7795 49.7187 77.6105 50.5526 77.6077 51.6406C77.6077 52.3679 77.683 52.983 77.8335 53.4858C77.9869 53.9858 78.2043 54.3651 78.4855 54.6236C78.7668 54.8793 79.1048 55.0071 79.4997 55.0071Z" fill="#141414"/>
<path d="M89.4374 56.1321C88.8039 56.1321 88.2584 55.9886 87.801 55.7017C87.3465 55.4119 86.997 55.0128 86.7527 54.5043C86.5084 53.9957 86.3862 53.4134 86.3862 52.7571C86.3862 52.0923 86.5112 51.5057 86.7612 50.9972C87.0112 50.4858 87.3635 50.0866 87.8181 49.7997C88.2726 49.5128 88.8081 49.3693 89.4246 49.3693C89.9218 49.3693 90.3649 49.4616 90.7541 49.6463C91.1434 49.8281 91.4573 50.0838 91.6959 50.4134C91.9374 50.7429 92.0809 51.1278 92.1263 51.5682H90.8862C90.8181 51.2614 90.6618 50.9972 90.4175 50.7756C90.176 50.554 89.8522 50.4432 89.4459 50.4432C89.0908 50.4432 88.7797 50.5369 88.5127 50.7244C88.2485 50.9091 88.0425 51.1733 87.8948 51.517C87.747 51.858 87.6732 52.2614 87.6732 52.7273C87.6732 53.2045 87.7456 53.6165 87.8905 53.9631C88.0354 54.3097 88.2399 54.5781 88.5041 54.7685C88.7712 54.9588 89.0851 55.054 89.4459 55.054C89.6874 55.054 89.9061 55.0099 90.1022 54.9219C90.301 54.831 90.4672 54.7017 90.6007 54.5341C90.7371 54.3665 90.8323 54.1648 90.8862 53.929H92.1263C92.0809 54.3523 91.9431 54.7301 91.713 55.0625C91.4828 55.3949 91.1746 55.6562 90.7882 55.8466C90.4047 56.0369 89.9544 56.1321 89.4374 56.1321ZM94.403 47.2727V56H93.1289V47.2727H94.403ZM95.7572 56V49.4545H97.0313V56H95.7572ZM96.4006 48.4446C96.179 48.4446 95.9887 48.3707 95.8296 48.223C95.6734 48.0724 95.5952 47.8935 95.5952 47.6861C95.5952 47.4759 95.6734 47.2969 95.8296 47.1491C95.9887 46.9986 96.179 46.9233 96.4006 46.9233C96.6222 46.9233 96.8111 46.9986 96.9674 47.1491C97.1265 47.2969 97.206 47.4759 97.206 47.6861C97.206 47.8935 97.1265 48.0724 96.9674 48.223C96.8111 48.3707 96.6222 48.4446 96.4006 48.4446ZM101.143 56.1321C100.509 56.1321 99.9636 55.9886 99.5062 55.7017C99.0516 55.4119 98.7022 55.0128 98.4579 54.5043C98.2136 53.9957 98.0914 53.4134 98.0914 52.7571C98.0914 52.0923 98.2164 51.5057 98.4664 50.9972C98.7164 50.4858 99.0687 50.0866 99.5232 49.7997C99.9778 49.5128 100.513 49.3693 101.13 49.3693C101.627 49.3693 102.07 49.4616 102.459 49.6463C102.849 49.8281 103.162 50.0838 103.401 50.4134C103.643 50.7429 103.786 51.1278 103.831 51.5682H102.591C102.523 51.2614 102.367 50.9972 102.123 50.7756C101.881 50.554 101.557 50.4432 101.151 50.4432C100.796 50.4432 100.485 50.5369 100.218 50.7244C99.9536 50.9091 99.7477 51.1733 99.5999 51.517C99.4522 51.858 99.3783 52.2614 99.3783 52.7273C99.3783 53.2045 99.4508 53.6165 99.5957 53.9631C99.7406 54.3097 99.9451 54.5781 100.209 54.7685C100.476 54.9588 100.79 55.054 101.151 55.054C101.393 55.054 101.611 55.0099 101.807 54.9219C102.006 54.831 102.172 54.7017 102.306 54.5341C102.442 54.3665 102.537 54.1648 102.591 53.929H103.831C103.786 54.3523 103.648 54.7301 103.418 55.0625C103.188 55.3949 102.88 55.6562 102.493 55.8466C102.11 56.0369 101.66 56.1321 101.143 56.1321ZM106.006 53.7798L105.997 52.2244H106.219L108.827 49.4545H110.353L107.378 52.608H107.178L106.006 53.7798ZM104.834 56V47.2727H106.108V56H104.834ZM108.968 56L106.624 52.8892L107.502 51.9986L110.531 56H108.968ZM116.059 51.0526L114.904 51.2571C114.855 51.1094 114.779 50.9687 114.674 50.8352C114.571 50.7017 114.432 50.5923 114.256 50.5071C114.08 50.4219 113.86 50.3793 113.595 50.3793C113.235 50.3793 112.934 50.4602 112.692 50.6222C112.451 50.7812 112.33 50.9872 112.33 51.2401C112.33 51.4588 112.411 51.6349 112.573 51.7685C112.735 51.902 112.996 52.0114 113.357 52.0966L114.397 52.3352C114.999 52.4744 115.448 52.6889 115.743 52.9787C116.039 53.2685 116.186 53.6449 116.186 54.108C116.186 54.5 116.073 54.8494 115.845 55.1562C115.621 55.4602 115.307 55.6989 114.904 55.8722C114.503 56.0455 114.039 56.1321 113.51 56.1321C112.777 56.1321 112.179 55.9759 111.716 55.6634C111.253 55.348 110.969 54.9006 110.864 54.321L112.095 54.1335C112.172 54.4545 112.33 54.6974 112.568 54.8622C112.807 55.0241 113.118 55.1051 113.502 55.1051C113.919 55.1051 114.253 55.0185 114.503 54.8452C114.753 54.669 114.878 54.4545 114.878 54.2017C114.878 53.9972 114.801 53.8253 114.648 53.6861C114.497 53.5469 114.266 53.4418 113.953 53.3707L112.845 53.1278C112.235 52.9886 111.783 52.767 111.49 52.4631C111.201 52.1591 111.056 51.7741 111.056 51.3082C111.056 50.9219 111.164 50.5838 111.38 50.294C111.595 50.0043 111.894 49.7784 112.274 49.6165C112.655 49.4517 113.091 49.3693 113.583 49.3693C114.29 49.3693 114.847 49.5227 115.253 49.8295C115.659 50.1335 115.928 50.5412 116.059 51.0526Z" fill="#808080"/>
<path d="M35.792 72.4998H35.7978M28.2087 72.4998H28.2145M34.3337 68.4165H29.667C28.0171 68.4165 27.1921 68.4165 26.6796 68.9291C26.167 69.4416 26.167 70.2666 26.167 71.9165V73.0832C26.167 74.7331 26.167 75.558 26.6796 76.0706C27.1921 76.5832 28.0171 76.5832 29.667 76.5832H34.3337C35.9836 76.5832 36.8085 76.5832 37.3211 76.0706C37.8337 75.558 37.8337 74.7331 37.8337 73.0832V71.9165C37.8337 70.2666 37.8337 69.4416 37.3211 68.9291C36.8085 68.4165 35.9836 68.4165 34.3337 68.4165ZM33.7503 72.4998C33.7503 73.4664 32.9669 74.2498 32.0003 74.2498C31.0338 74.2498 30.2503 73.4664 30.2503 72.4998C30.2503 71.5333 31.0338 70.7498 32.0003 70.7498C32.9669 70.7498 33.7503 71.5333 33.7503 72.4998Z" stroke="#808080" stroke-linecap="round" stroke-linejoin="round"/>
<path d="M35.792 72.4998H35.7978M28.2087 72.4998H28.2145M34.3337 68.4165H29.667C28.0171 68.4165 27.1921 68.4165 26.6796 68.9291C26.167 69.4416 26.167 70.2666 26.167 71.9165V73.0832C26.167 74.7331 26.167 75.558 26.6796 76.0706C27.1921 76.5832 28.0171 76.5832 29.667 76.5832H34.3337C35.9836 76.5832 36.8085 76.5832 37.3211 76.0706C37.8337 75.558 37.8337 74.7331 37.8337 73.0832V71.9165C37.8337 70.2666 37.8337 69.4416 37.3211 68.9291C36.8085 68.4165 35.9836 68.4165 34.3337 68.4165ZM33.7503 72.4998C33.7503 73.4664 32.9669 74.2498 32.0003 74.2498C31.0338 74.2498 30.2503 73.4664 30.2503 72.4998C30.2503 71.5333 31.0338 70.7498 32.0003 70.7498C32.9669 70.7498 33.7503 71.5333 33.7503 72.4998Z" stroke="url(#paint12_linear_574_6627)" stroke-linecap="round" stroke-linejoin="round"/>
<path d="M47.5327 78.0909V67.1818H48.2315V78.0909H47.5327ZM49.7188 70.5653C49.6733 70.1619 49.4858 69.8494 49.1562 69.6278C48.8267 69.4034 48.4119 69.2912 47.9119 69.2912C47.554 69.2912 47.2443 69.348 46.983 69.4616C46.7216 69.5724 46.5185 69.7259 46.3736 69.9219C46.2315 70.1151 46.1605 70.3352 46.1605 70.5824C46.1605 70.7898 46.2088 70.9687 46.3054 71.1193C46.4048 71.2699 46.5341 71.3963 46.6932 71.4986C46.8551 71.598 47.0284 71.6818 47.2131 71.75C47.3977 71.8153 47.5753 71.8693 47.7457 71.9119L48.598 72.1335C48.8764 72.2017 49.1619 72.294 49.4545 72.4105C49.7472 72.527 50.0185 72.6804 50.2685 72.8707C50.5185 73.0611 50.7202 73.2969 50.8736 73.5781C51.0298 73.8594 51.108 74.196 51.108 74.5881C51.108 75.0824 50.9801 75.5213 50.7244 75.9048C50.4716 76.2884 50.1037 76.5909 49.6207 76.8125C49.1406 77.0341 48.5597 77.1449 47.8778 77.1449C47.2244 77.1449 46.6591 77.0412 46.1818 76.8338C45.7045 76.6264 45.331 76.3324 45.0611 75.9517C44.7912 75.5682 44.642 75.1136 44.6136 74.5881H45.9347C45.9602 74.9034 46.0625 75.1662 46.2415 75.3764C46.4233 75.5838 46.6548 75.7386 46.9361 75.8409C47.2202 75.9403 47.5312 75.9901 47.8693 75.9901C48.2415 75.9901 48.5724 75.9318 48.8622 75.8153C49.1548 75.696 49.3849 75.5312 49.5526 75.321C49.7202 75.108 49.804 74.8594 49.804 74.5753C49.804 74.3168 49.7301 74.1051 49.5824 73.9403C49.4375 73.7756 49.2401 73.6392 48.9901 73.5312C48.7429 73.4233 48.4631 73.3281 48.1506 73.2457L47.1193 72.9645C46.4205 72.7741 45.8665 72.4943 45.4574 72.125C45.0511 71.7557 44.848 71.267 44.848 70.6591C44.848 70.1562 44.9844 69.7173 45.2571 69.3423C45.5298 68.9673 45.8991 68.6761 46.3651 68.4688C46.831 68.2585 47.3565 68.1534 47.9418 68.1534C48.5327 68.1534 49.054 68.2571 49.5057 68.4645C49.9602 68.6719 50.3182 68.9574 50.5795 69.321C50.8409 69.6818 50.9773 70.0966 50.9886 70.5653H49.7188ZM52.0189 75.2955V74.2301L55.7902 68.2727H56.6297V69.8409H56.097L53.3996 74.1108V74.179H58.5686V75.2955H52.0189ZM56.1567 77V74.9716L56.1652 74.4858V68.2727H57.4138V77H56.1567ZM59.6937 77V76.0455L62.6468 72.9858C62.9622 72.6534 63.2221 72.3622 63.4267 72.1122C63.634 71.8594 63.7889 71.6193 63.8912 71.392C63.9934 71.1648 64.0446 70.9233 64.0446 70.6676C64.0446 70.3778 63.9764 70.1278 63.84 69.9176C63.7037 69.7045 63.5176 69.5412 63.2818 69.4276C63.046 69.3111 62.7804 69.2528 62.4849 69.2528C62.1724 69.2528 61.8997 69.3168 61.6667 69.4446C61.4338 69.5724 61.2548 69.7528 61.1298 69.9858C61.0048 70.2187 60.9423 70.4915 60.9423 70.804H59.6852C59.6852 70.2727 59.8073 69.8082 60.0517 69.4105C60.296 69.0128 60.6312 68.7045 61.0573 68.4858C61.4835 68.2642 61.9679 68.1534 62.5105 68.1534C63.0588 68.1534 63.5417 68.2628 63.9593 68.4815C64.3798 68.6974 64.7079 68.9929 64.9437 69.3679C65.1795 69.7401 65.2974 70.1605 65.2974 70.6293C65.2974 70.9531 65.2363 71.2699 65.1142 71.5795C64.9948 71.8892 64.786 72.2344 64.4877 72.6151C64.1894 72.9929 63.7747 73.4517 63.2434 73.9915L61.509 75.8068V75.8707H65.438V77H59.6937ZM68.3678 75.8068L68.3039 76.2713C68.2613 76.6122 68.1888 76.9673 68.0865 77.3366C67.9871 77.7088 67.8834 78.054 67.7755 78.3722C67.6704 78.6903 67.5837 78.9432 67.5155 79.1307H66.6121C66.649 78.9545 66.7002 78.7159 66.7655 78.4148C66.8309 78.1165 66.8948 77.7827 66.9573 77.4134C67.0198 77.044 67.0667 76.6676 67.0979 76.2841L67.1405 75.8068H68.3678ZM72.5121 77.1449C71.8388 77.142 71.2635 76.9645 70.7862 76.6122C70.3089 76.2599 69.9439 75.7472 69.691 75.0739C69.4382 74.4006 69.3118 73.5895 69.3118 72.6406C69.3118 71.6946 69.4382 70.8864 69.691 70.2159C69.9467 69.5455 70.3132 69.0341 70.7905 68.6818C71.2706 68.3295 71.8444 68.1534 72.5121 68.1534C73.1797 68.1534 73.7521 68.331 74.2294 68.6861C74.7067 69.0384 75.0717 69.5497 75.3246 70.2202C75.5802 70.8878 75.7081 71.6946 75.7081 72.6406C75.7081 73.5923 75.5817 74.4048 75.3288 75.0781C75.076 75.7486 74.7109 76.2614 74.2337 76.6165C73.7564 76.9688 73.1825 77.1449 72.5121 77.1449ZM72.5121 76.0071C73.103 76.0071 73.5646 75.7188 73.897 75.142C74.2322 74.5653 74.3998 73.7315 74.3998 72.6406C74.3998 71.9162 74.3231 71.304 74.1697 70.804C74.0192 70.3011 73.8018 69.9205 73.5177 69.6619C73.2365 69.4006 72.9013 69.2699 72.5121 69.2699C71.924 69.2699 71.4623 69.5597 71.1271 70.1392C70.7919 70.7187 70.6229 71.5526 70.62 72.6406C70.62 73.3679 70.6953 73.983 70.8459 74.4858C70.9993 74.9858 71.2166 75.3651 71.4979 75.6236C71.7791 75.8793 72.1172 76.0071 72.5121 76.0071ZM79.8982 77.1449C79.2249 77.142 78.6496 76.9645 78.1723 76.6122C77.695 76.2599 77.33 75.7472 77.0771 75.0739C76.8243 74.4006 76.6979 73.5895 76.6979 72.6406C76.6979 71.6946 76.8243 70.8864 77.0771 70.2159C77.3328 69.5455 77.6993 69.0341 78.1766 68.6818C78.6567 68.3295 79.2305 68.1534 79.8982 68.1534C80.5658 68.1534 81.1382 68.331 81.6155 68.6861C82.0928 69.0384 82.4578 69.5497 82.7107 70.2202C82.9663 70.8878 83.0942 71.6946 83.0942 72.6406C83.0942 73.5923 82.9678 74.4048 82.7149 75.0781C82.4621 75.7486 82.097 76.2614 81.6197 76.6165C81.1425 76.9688 80.5686 77.1449 79.8982 77.1449ZM79.8982 76.0071C80.4891 76.0071 80.9507 75.7188 81.2831 75.142C81.6183 74.5653 81.7859 73.7315 81.7859 72.6406C81.7859 71.9162 81.7092 71.304 81.5558 70.804C81.4053 70.3011 81.1879 69.9205 80.9038 69.6619C80.6226 69.4006 80.2874 69.2699 79.8982 69.2699C79.3101 69.2699 78.8484 69.5597 78.5132 70.1392C78.178 70.7187 78.0089 71.5526 78.0061 72.6406C78.0061 73.3679 78.0814 73.983 78.232 74.4858C78.3854 74.9858 78.6027 75.3651 78.8839 75.6236C79.1652 75.8793 79.5033 76.0071 79.8982 76.0071ZM87.2842 77.1449C86.611 77.142 86.0357 76.9645 85.5584 76.6122C85.0811 76.2599 84.7161 75.7472 84.4632 75.0739C84.2104 74.4006 84.084 73.5895 84.084 72.6406C84.084 71.6946 84.2104 70.8864 84.4632 70.2159C84.7189 69.5455 85.0854 69.0341 85.5627 68.6818C86.0428 68.3295 86.6166 68.1534 87.2842 68.1534C87.9519 68.1534 88.5243 68.331 89.0016 68.6861C89.4788 69.0384 89.8439 69.5497 90.0967 70.2202C90.3524 70.8878 90.4803 71.6946 90.4803 72.6406C90.4803 73.5923 90.3538 74.4048 90.101 75.0781C89.8482 75.7486 89.4831 76.2614 89.0058 76.6165C88.5286 76.9688 87.9547 77.1449 87.2842 77.1449ZM87.2842 76.0071C87.8752 76.0071 88.3368 75.7188 88.6692 75.142C89.0044 74.5653 89.172 73.7315 89.172 72.6406C89.172 71.9162 89.0953 71.304 88.9419 70.804C88.7913 70.3011 88.574 69.9205 88.2899 69.6619C88.0087 69.4006 87.6735 69.2699 87.2842 69.2699C86.6962 69.2699 86.2345 69.5597 85.8993 70.1392C85.5641 70.7187 85.395 71.5526 85.3922 72.6406C85.3922 73.3679 85.4675 73.983 85.6181 74.4858C85.7715 74.9858 85.9888 75.3651 86.27 75.6236C86.5513 75.8793 86.8894 76.0071 87.2842 76.0071Z" fill="#141414"/>
<path d="M94.4648 77V70.4545H95.6878V71.5199H95.7688C95.9052 71.1591 96.1282 70.8778 96.4378 70.6761C96.7475 70.4716 97.1182 70.3693 97.55 70.3693C97.9875 70.3693 98.354 70.4716 98.6495 70.6761C98.9478 70.8807 99.1679 71.1619 99.31 71.5199H99.3782C99.5344 71.1705 99.783 70.892 100.124 70.6847C100.465 70.4744 100.871 70.3693 101.343 70.3693C101.936 70.3693 102.421 70.5554 102.796 70.9276C103.174 71.2997 103.363 71.8608 103.363 72.6108V77H102.088V72.7301C102.088 72.2869 101.968 71.9659 101.726 71.767C101.485 71.5682 101.196 71.4688 100.861 71.4688C100.446 71.4688 100.124 71.5966 99.8938 71.8523C99.6637 72.1051 99.5486 72.4304 99.5486 72.8281V77H98.2787V72.6491C98.2787 72.294 98.1679 72.0085 97.9463 71.7926C97.7248 71.5767 97.4364 71.4688 97.0813 71.4688C96.8398 71.4688 96.6168 71.5327 96.4123 71.6605C96.2106 71.7855 96.0472 71.9602 95.9222 72.1847C95.8 72.4091 95.739 72.669 95.739 72.9645V77H94.4648ZM106.615 77.1449C106.2 77.1449 105.825 77.0682 105.49 76.9148C105.155 76.7585 104.889 76.5327 104.693 76.2372C104.5 75.9418 104.403 75.5795 104.403 75.1506C104.403 74.7812 104.474 74.4773 104.617 74.2386C104.759 74 104.95 73.8111 105.192 73.6719C105.433 73.5327 105.703 73.4276 106.001 73.3565C106.3 73.2855 106.604 73.2315 106.913 73.1946C107.305 73.1491 107.624 73.1122 107.868 73.0838C108.112 73.0526 108.29 73.0028 108.401 72.9347C108.511 72.8665 108.567 72.7557 108.567 72.6023V72.5724C108.567 72.2003 108.462 71.9119 108.251 71.7074C108.044 71.5028 107.734 71.4006 107.322 71.4006C106.894 71.4006 106.555 71.4957 106.308 71.6861C106.064 71.8736 105.895 72.0824 105.801 72.3125L104.604 72.0398C104.746 71.642 104.953 71.321 105.226 71.0767C105.501 70.8295 105.818 70.6506 106.176 70.5398C106.534 70.4261 106.911 70.3693 107.305 70.3693C107.567 70.3693 107.844 70.4006 108.136 70.4631C108.432 70.5227 108.707 70.6335 108.963 70.7955C109.222 70.9574 109.433 71.1889 109.598 71.4901C109.763 71.7884 109.845 72.1761 109.845 72.6534V77H108.601V76.1051H108.55C108.467 76.2699 108.344 76.4318 108.179 76.5909C108.014 76.75 107.803 76.8821 107.544 76.9872C107.286 77.0923 106.976 77.1449 106.615 77.1449ZM106.892 76.1222C107.244 76.1222 107.546 76.0526 107.796 75.9134C108.048 75.7741 108.24 75.5923 108.371 75.3679C108.504 75.1406 108.571 74.8977 108.571 74.6392V73.7955C108.526 73.8409 108.438 73.8835 108.307 73.9233C108.179 73.9602 108.033 73.9929 107.868 74.0213C107.703 74.0469 107.543 74.071 107.386 74.0938C107.23 74.1136 107.099 74.1307 106.994 74.1449C106.747 74.1761 106.521 74.2287 106.317 74.3026C106.115 74.3764 105.953 74.483 105.831 74.6222C105.712 74.7585 105.652 74.9403 105.652 75.1676C105.652 75.483 105.769 75.7216 106.001 75.8835C106.234 76.0426 106.531 76.1222 106.892 76.1222ZM113.633 77.1278C113.104 77.1278 112.633 76.9929 112.218 76.723C111.806 76.4503 111.482 76.0625 111.246 75.5597C111.013 75.054 110.897 74.4474 110.897 73.7401C110.897 73.0327 111.015 72.4276 111.25 71.9247C111.489 71.4219 111.816 71.0369 112.231 70.7699C112.645 70.5028 113.116 70.3693 113.641 70.3693C114.047 70.3693 114.374 70.4375 114.621 70.5739C114.871 70.7074 115.064 70.8636 115.201 71.0426C115.34 71.2216 115.448 71.3793 115.525 71.5156H115.601V68.2727H116.875V77H115.631V75.9815H115.525C115.448 76.1207 115.337 76.2798 115.192 76.4588C115.05 76.6378 114.854 76.794 114.604 76.9276C114.354 77.0611 114.03 77.1278 113.633 77.1278ZM113.914 76.0412C114.28 76.0412 114.59 75.9446 114.843 75.7514C115.099 75.5554 115.292 75.2841 115.422 74.9375C115.556 74.5909 115.623 74.1875 115.623 73.7273C115.623 73.2727 115.557 72.875 115.427 72.5341C115.296 72.1932 115.104 71.9276 114.851 71.7372C114.599 71.5469 114.286 71.4517 113.914 71.4517C113.53 71.4517 113.211 71.5511 112.955 71.75C112.699 71.9489 112.506 72.2202 112.375 72.5639C112.248 72.9077 112.184 73.2955 112.184 73.7273C112.184 74.1648 112.249 74.5582 112.38 74.9077C112.51 75.2571 112.704 75.5341 112.959 75.7386C113.218 75.9403 113.536 76.0412 113.914 76.0412ZM121.155 77.1321C120.51 77.1321 119.955 76.9943 119.489 76.7188C119.026 76.4403 118.668 76.0497 118.415 75.5469C118.165 75.0412 118.04 74.4489 118.04 73.7699C118.04 73.0994 118.165 72.5085 118.415 71.9972C118.668 71.4858 119.02 71.0866 119.472 70.7997C119.926 70.5128 120.458 70.3693 121.066 70.3693C121.435 70.3693 121.793 70.4304 122.139 70.5526C122.486 70.6747 122.797 70.8665 123.073 71.1278C123.348 71.3892 123.566 71.7287 123.725 72.1463C123.884 72.5611 123.963 73.0653 123.963 73.6591V74.1108H118.76V73.1562H122.715C122.715 72.821 122.647 72.5241 122.51 72.2656C122.374 72.0043 122.182 71.7983 121.935 71.6477C121.691 71.4972 121.404 71.4219 121.074 71.4219C120.716 71.4219 120.404 71.5099 120.137 71.6861C119.872 71.8594 119.668 72.0866 119.523 72.3679C119.381 72.6463 119.31 72.9489 119.31 73.2756V74.0213C119.31 74.4588 119.387 74.831 119.54 75.1378C119.696 75.4446 119.914 75.679 120.192 75.8409C120.47 76 120.796 76.0795 121.168 76.0795C121.409 76.0795 121.629 76.0455 121.828 75.9773C122.027 75.9062 122.199 75.8011 122.344 75.6619C122.489 75.5227 122.6 75.3509 122.676 75.1463L123.882 75.3636C123.786 75.7187 123.612 76.0298 123.362 76.2969C123.115 76.5611 122.804 76.767 122.429 76.9148C122.057 77.0597 121.632 77.1321 121.155 77.1321Z" fill="#808080"/>
</g>
</g>
<defs>
<filter id="filter0_d_574_6627" x="176" y="131" width="64" height="102" filterUnits="userSpaceOnUse" color-interpolation-filters="sRGB">
<feFlood flood-opacity="0" result="BackgroundImageFix"/>
<feColorMatrix in="SourceAlpha" type="matrix" values="0 0 0 0 0 0 0 0 0 0 0 0 0 0 0 0 0 0 127 0" result="hardAlpha"/>
<feOffset dx="4" dy="3"/>
<feGaussianBlur stdDeviation="5.5"/>
<feColorMatrix type="matrix" values="0 0 0 0 0 0 0 0 0 0 0 0 0 0 0 0 0 0 0.02 0"/>
<feBlend mode="normal" in2="BackgroundImageFix" result="effect1_dropShadow_574_6627"/>
<feBlend mode="normal" in="SourceGraphic" in2="effect1_dropShadow_574_6627" result="shape"/>
</filter>
<filter id="filter1_d_574_6627" x="320" y="87" width="64" height="146" filterUnits="userSpaceOnUse" color-interpolation-filters="sRGB">
<feFlood flood-opacity="0" result="BackgroundImageFix"/>
<feColorMatrix in="SourceAlpha" type="matrix" values="0 0 0 0 0 0 0 0 0 0 0 0 0 0 0 0 0 0 127 0" result="hardAlpha"/>
<feOffset dx="4" dy="3"/>
<feGaussianBlur stdDeviation="5.5"/>
<feColorMatrix type="matrix" values="0 0 0 0 0 0 0 0 0 0 0 0 0 0 0 0 0 0 0.02 0"/>
<feBlend mode="normal" in2="BackgroundImageFix" result="effect1_dropShadow_574_6627"/>
<feBlend mode="normal" in="SourceGraphic" in2="effect1_dropShadow_574_6627" result="shape"/>
</filter>
<filter id="filter2_d_574_6627" x="128" y="116" width="64" height="117" filterUnits="userSpaceOnUse" color-interpolation-filters="sRGB">
<feFlood flood-opacity="0" result="BackgroundImageFix"/>
<feColorMatrix in="SourceAlpha" type="matrix" values="0 0 0 0 0 0 0 0 0 0 0 0 0 0 0 0 0 0 127 0" result="hardAlpha"/>
<feOffset dx="4" dy="3"/>
<feGaussianBlur stdDeviation="5.5"/>
<feColorMatrix type="matrix" values="0 0 0 0 0 0 0 0 0 0 0 0 0 0 0 0 0 0 0.02 0"/>
<feBlend mode="normal" in2="BackgroundImageFix" result="effect1_dropShadow_574_6627"/>
<feBlend mode="normal" in="SourceGraphic" in2="effect1_dropShadow_574_6627" result="shape"/>
</filter>
<filter id="filter3_d_574_6627" x="80" y="166" width="64" height="67" filterUnits="userSpaceOnUse" color-interpolation-filters="sRGB">
<feFlood flood-opacity="0" result="BackgroundImageFix"/>
<feColorMatrix in="SourceAlpha" type="matrix" values="0 0 0 0 0 0 0 0 0 0 0 0 0 0 0 0 0 0 127 0" result="hardAlpha"/>
<feOffset dx="4" dy="3"/>
<feGaussianBlur stdDeviation="5.5"/>
<feColorMatrix type="matrix" values="0 0 0 0 0 0 0 0 0 0 0 0 0 0 0 0 0 0 0.02 0"/>
<feBlend mode="normal" in2="BackgroundImageFix" result="effect1_dropShadow_574_6627"/>
<feBlend mode="normal" in="SourceGraphic" in2="effect1_dropShadow_574_6627" result="shape"/>
</filter>
<filter id="filter4_d_574_6627" x="32" y="151" width="64" height="82" filterUnits="userSpaceOnUse" color-interpolation-filters="sRGB">
<feFlood flood-opacity="0" result="BackgroundImageFix"/>
<feColorMatrix in="SourceAlpha" type="matrix" values="0 0 0 0 0 0 0 0 0 0 0 0 0 0 0 0 0 0 127 0" result="hardAlpha"/>
<feOffset dx="4" dy="3"/>
<feGaussianBlur stdDeviation="5.5"/>
<feColorMatrix type="matrix" values="0 0 0 0 0 0 0 0 0 0 0 0 0 0 0 0 0 0 0.02 0"/>
<feBlend mode="normal" in2="BackgroundImageFix" result="effect1_dropShadow_574_6627"/>
<feBlend mode="normal" in="SourceGraphic" in2="effect1_dropShadow_574_6627" result="shape"/>
</filter>
<filter id="filter5_d_574_6627" x="-16" y="182" width="64" height="51" filterUnits="userSpaceOnUse" color-interpolation-filters="sRGB">
<feFlood flood-opacity="0" result="BackgroundImageFix"/>
<feColorMatrix in="SourceAlpha" type="matrix" values="0 0 0 0 0 0 0 0 0 0 0 0 0 0 0 0 0 0 127 0" result="hardAlpha"/>
<feOffset dx="4" dy="3"/>
<feGaussianBlur stdDeviation="5.5"/>
<feColorMatrix type="matrix" values="0 0 0 0 0 0 0 0 0 0 0 0 0 0 0 0 0 0 0.02 0"/>
<feBlend mode="normal" in2="BackgroundImageFix" result="effect1_dropShadow_574_6627"/>
<feBlend mode="normal" in="SourceGraphic" in2="effect1_dropShadow_574_6627" result="shape"/>
</filter>
<filter id="filter6_di_574_6627" x="224" y="43" width="64" height="190" filterUnits="userSpaceOnUse" color-interpolation-filters="sRGB">
<feFlood flood-opacity="0" result="BackgroundImageFix"/>
<feColorMatrix in="SourceAlpha" type="matrix" values="0 0 0 0 0 0 0 0 0 0 0 0 0 0 0 0 0 0 127 0" result="hardAlpha"/>
<feOffset dx="4" dy="3"/>
<feGaussianBlur stdDeviation="5.5"/>
<feColorMatrix type="matrix" values="0 0 0 0 0 0 0 0 0 0 0 0 0 0 0 0 0 0 0.02 0"/>
<feBlend mode="normal" in2="BackgroundImageFix" result="effect1_dropShadow_574_6627"/>
<feBlend mode="normal" in="SourceGraphic" in2="effect1_dropShadow_574_6627" result="shape"/>
<feColorMatrix in="SourceAlpha" type="matrix" values="0 0 0 0 0 0 0 0 0 0 0 0 0 0 0 0 0 0 127 0" result="hardAlpha"/>
<feOffset dy="4"/>
<feGaussianBlur stdDeviation="2.4"/>
<feComposite in2="hardAlpha" operator="arithmetic" k2="-1" k3="1"/>
<feColorMatrix type="matrix" values="0 0 0 0 1 0 0 0 0 1 0 0 0 0 1 0 0 0 0.25 0"/>
<feBlend mode="normal" in2="shape" result="effect2_innerShadow_574_6627"/>
</filter>
<filter id="filter7_d_574_6627" x="9" y="8" width="148" height="93" filterUnits="userSpaceOnUse" color-interpolation-filters="sRGB">
<feFlood flood-opacity="0" result="BackgroundImageFix"/>
<feColorMatrix in="SourceAlpha" type="matrix" values="0 0 0 0 0 0 0 0 0 0 0 0 0 0 0 0 0 0 127 0" result="hardAlpha"/>
<feOffset dx="4" dy="3"/>
<feGaussianBlur stdDeviation="5.5"/>
<feColorMatrix type="matrix" values="0 0 0 0 0 0 0 0 0 0 0 0 0 0 0 0 0 0 0.02 0"/>
<feBlend mode="normal" in2="BackgroundImageFix" result="effect1_dropShadow_574_6627"/>
<feBlend mode="normal" in="SourceGraphic" in2="effect1_dropShadow_574_6627" result="shape"/>
</filter>
<linearGradient id="paint0_linear_574_6627" x1="145.001" y1="44.999" x2="141.65" y2="42.0719" gradientUnits="userSpaceOnUse">
<stop stop-color="#FC6262"/>
<stop offset="1" stop-color="#5F0EEC"/>
</linearGradient>
<linearGradient id="paint1_linear_574_6627" x1="142" y1="23.125" x2="140.469" y2="79.9723" gradientUnits="userSpaceOnUse">
<stop stop-color="#FC6262"/>
<stop offset="1" stop-color="#5F0EEC"/>
</linearGradient>
<linearGradient id="paint2_linear_574_6627" x1="273.001" y1="51.0003" x2="229.012" y2="219.375" gradientUnits="userSpaceOnUse">
<stop stop-color="#FC6262"/>
<stop offset="1" stop-color="#5F0EEC"/>
</linearGradient>
<linearGradient id="paint3_linear_574_6627" x1="141.5" y1="80" x2="141.5" y2="61" gradientUnits="userSpaceOnUse">
<stop stop-color="#E8E8E8"/>
<stop offset="1" stop-color="#E8E8E8" stop-opacity="0"/>
</linearGradient>
<linearGradient id="paint4_linear_574_6627" x1="0.5" y1="19" x2="0.5" y2="0" gradientUnits="userSpaceOnUse">
<stop stop-color="#E8E8E8"/>
<stop offset="1" stop-color="#E8E8E8" stop-opacity="0"/>
</linearGradient>
<linearGradient id="paint5_linear_574_6627" x1="364" y1="117.5" x2="305" y2="117.5" gradientUnits="userSpaceOnUse">
<stop stop-color="white"/>
<stop offset="1" stop-color="white" stop-opacity="0"/>
</linearGradient>
<linearGradient id="paint6_linear_574_6627" x1="59" y1="117.5" x2="0" y2="117.5" gradientUnits="userSpaceOnUse">
<stop stop-color="white"/>
<stop offset="1" stop-color="white" stop-opacity="0"/>
</linearGradient>
<linearGradient id="paint7_linear_574_6627" x1="33.751" y1="28.7495" x2="33.5073" y2="32.4808" gradientUnits="userSpaceOnUse">
<stop stop-color="#FC6262"/>
<stop offset="1" stop-color="#5F0EEC"/>
</linearGradient>
<linearGradient id="paint8_linear_574_6627" x1="37.8339" y1="26.4165" x2="37.435" y2="35.1418" gradientUnits="userSpaceOnUse">
<stop stop-color="#FC6262"/>
<stop offset="1" stop-color="#5F0EEC"/>
</linearGradient>
<linearGradient id="paint9_linear_574_6627" x1="33.751" y1="28.7495" x2="33.5073" y2="32.4808" gradientUnits="userSpaceOnUse">
<stop stop-color="#FC6262"/>
<stop offset="1" stop-color="#5F0EEC"/>
</linearGradient>
<linearGradient id="paint10_linear_574_6627" x1="37.8339" y1="26.4165" x2="37.435" y2="35.1418" gradientUnits="userSpaceOnUse">
<stop stop-color="#FC6262"/>
<stop offset="1" stop-color="#5F0EEC"/>
</linearGradient>
<linearGradient id="paint11_linear_574_6627" x1="36.0838" y1="45.6665" x2="34.9284" y2="58.0495" gradientUnits="userSpaceOnUse">
<stop stop-color="#FC6262"/>
<stop offset="1" stop-color="#5F0EEC"/>
</linearGradient>
<linearGradient id="paint12_linear_574_6627" x1="37.8339" y1="68.4165" x2="37.435" y2="77.1418" gradientUnits="userSpaceOnUse">
<stop stop-color="#FC6262"/>
<stop offset="1" stop-color="#5F0EEC"/>
</linearGradient>
<clipPath id="clip0_574_6627">
<rect width="360" height="235" fill="white"/>
</clipPath>
</defs>
</svg>
