<svg width="18" height="18" viewBox="0 0 18 18" fill="none" xmlns="http://www.w3.org/2000/svg">
<path d="M6.37402 4.875C6.37402 3.82165 6.37402 3.29497 6.62682 2.91664C6.73626 2.75286 6.87688 2.61223 7.04067 2.50279C7.41901 2.25 7.94569 2.25 8.99899 2.25C10.0524 2.25 10.579 2.25 10.9574 2.50279C11.1212 2.61223 11.2618 2.75286 11.3712 2.91664C11.624 3.29497 11.624 3.82165 11.624 4.875M5.24902 4.875V15.75M12.749 4.875V15.75M1.49902 10.5001L1.49903 10.125C1.49903 7.65009 1.49904 6.41268 2.26788 5.64384C3.03673 4.875 4.27416 4.875 6.74903 4.875H11.2499C13.7244 4.875 14.9616 4.875 15.7305 5.64369C16.4993 6.41237 16.4995 7.64964 16.4999 10.1241L16.5 10.4993C16.5004 12.9746 16.5006 14.2123 15.7317 14.9813C14.9628 15.7503 13.7252 15.7502 11.2499 15.7502L6.74891 15.7501C4.27408 15.7501 3.03667 15.75 2.26784 14.9812C1.49902 14.2124 1.49902 12.9749 1.49902 10.5001Z" stroke="#5F0EEC" stroke-width="1.33" stroke-linecap="round" stroke-linejoin="round"/>
<path d="M6.37402 4.875C6.37402 3.82165 6.37402 3.29497 6.62682 2.91664C6.73626 2.75286 6.87688 2.61223 7.04067 2.50279C7.41901 2.25 7.94569 2.25 8.99899 2.25C10.0524 2.25 10.579 2.25 10.9574 2.50279C11.1212 2.61223 11.2618 2.75286 11.3712 2.91664C11.624 3.29497 11.624 3.82165 11.624 4.875M5.24902 4.875V15.75M12.749 4.875V15.75M1.49902 10.5001L1.49903 10.125C1.49903 7.65009 1.49904 6.41268 2.26788 5.64384C3.03673 4.875 4.27416 4.875 6.74903 4.875H11.2499C13.7244 4.875 14.9616 4.875 15.7305 5.64369C16.4993 6.41237 16.4995 7.64964 16.4999 10.1241L16.5 10.4993C16.5004 12.9746 16.5006 14.2123 15.7317 14.9813C14.9628 15.7503 13.7252 15.7502 11.2499 15.7502L6.74891 15.7501C4.27408 15.7501 3.03667 15.75 2.26784 14.9812C1.49902 14.2124 1.49902 12.9749 1.49902 10.5001Z" stroke="url(#paint0_linear_554_2374)" stroke-width="1.33" stroke-linecap="round" stroke-linejoin="round"/>
<defs>
<linearGradient id="paint0_linear_554_2374" x1="10.5854" y1="2.42832" x2="5.73867" y2="15.6641" gradientUnits="userSpaceOnUse">
<stop stop-color="#8864EC"/>
<stop offset="1" stop-color="#511AB0"/>
</linearGradient>
</defs>
</svg>
