<svg width="14" height="14" viewBox="0 0 14 14" fill="none" xmlns="http://www.w3.org/2000/svg">
<path d="M8.70701 2.57318L4.82622 4.43605C4.52755 4.57942 4.20842 4.61534 3.8831 4.54246C3.6702 4.49476 3.56373 4.47092 3.47801 4.46113C2.4135 4.33957 1.75 5.18208 1.75 6.15092V6.68257C1.75 7.65143 2.4135 8.49394 3.47801 8.37237C3.56373 8.36257 3.67021 8.33871 3.8831 8.29106C4.20842 8.21814 4.52755 8.25407 4.82622 8.39746L8.70701 10.2603C9.59782 10.688 10.0432 10.9018 10.5399 10.7351C11.0365 10.5684 11.2069 10.2108 11.5479 9.49558C12.484 7.53161 12.484 5.30191 11.5479 3.33789C11.2069 2.62267 11.0365 2.26505 10.5399 2.09839C10.0432 1.93173 9.59782 2.14555 8.70701 2.57318Z" stroke="#141414" stroke-width="1.17" stroke-linecap="round" stroke-linejoin="round"/>
<path d="M7.58301 9.91659V10.2083C7.58301 10.9573 7.58301 11.3318 7.45234 11.5433C7.2781 11.8252 6.95954 11.9845 6.62943 11.9547C6.38187 11.9324 6.08227 11.7077 5.48301 11.2583L4.78301 10.7333C4.21282 10.3056 4.08301 10.046 4.08301 9.33325V8.45825" stroke="#141414" stroke-width="1.17" stroke-linecap="round" stroke-linejoin="round"/>
<path d="M4.375 8.16675V4.66675" stroke="#141414" stroke-width="1.17" stroke-linecap="round" stroke-linejoin="round"/>
</svg>
