<svg width="14" height="14" viewBox="0 0 14 14" fill="none" xmlns="http://www.w3.org/2000/svg">
<path d="M1.16699 6.99992C1.16699 4.80003 1.16699 3.70009 1.85041 3.01667C2.53383 2.33325 3.63377 2.33325 5.83366 2.33325H8.16699C10.3669 2.33325 11.4669 2.33325 12.1502 3.01667C12.8337 3.70009 12.8337 4.80003 12.8337 6.99992C12.8337 9.19979 12.8337 10.2998 12.1502 10.9832C11.4669 11.6666 10.3669 11.6666 8.16699 11.6666H5.83366C3.63377 11.6666 2.53383 11.6666 1.85041 10.9832C1.16699 10.2998 1.16699 9.19979 1.16699 6.99992Z" stroke="#141414" stroke-width="1.17" stroke-linecap="round" stroke-linejoin="round"/>
<path d="M1.16699 5.83325H3.61537C4.0322 5.83325 4.24062 5.83325 4.42755 5.89859C4.54169 5.93849 4.64894 5.99589 4.74546 6.06874C4.9035 6.18804 5.01911 6.3614 5.25033 6.70825C5.48154 7.0551 5.59715 7.22847 5.75519 7.34776C5.85168 7.42062 5.95896 7.47802 6.07312 7.51792C6.26002 7.58325 6.46844 7.58325 6.88529 7.58325H7.11536C7.53221 7.58325 7.74063 7.58325 7.92753 7.51792C8.04169 7.47802 8.14897 7.42062 8.24545 7.34776C8.40348 7.22847 8.51909 7.0551 8.75033 6.70825C8.98156 6.3614 9.09718 6.18804 9.2552 6.06874C9.35168 5.99589 9.45896 5.93849 9.57312 5.89859C9.76002 5.83325 9.96844 5.83325 10.3853 5.83325H12.8337" stroke="#141414" stroke-width="1.17" stroke-linecap="round" stroke-linejoin="round"/>
</svg>
