<svg width="24" height="24" viewBox="0 0 24 24" fill="none" xmlns="http://www.w3.org/2000/svg">
<path opacity="0.4" d="M22.25 12.0525V12V11.9475C22.25 9.75479 22.25 8.03278 22.0693 6.68848C21.8842 5.31182 21.4969 4.21953 20.6387 3.36133C19.7805 2.50313 18.6882 2.11575 17.3115 1.93066C15.9672 1.74998 14.2452 1.74999 12.0526 1.75H12H11.9474C9.75476 1.74999 8.03277 1.74998 6.68848 1.93066C5.31182 2.11575 4.21953 2.50313 3.36133 3.36133C2.50313 4.21953 2.11575 5.31182 1.93066 6.68848C1.74998 8.03277 1.74999 9.75476 1.75 11.9474V12V12.0526C1.74999 14.2452 1.74998 15.9672 1.93066 17.3115C2.11575 18.6882 2.50313 19.7805 3.36133 20.6387C4.21953 21.4969 5.31182 21.8842 6.68848 22.0693C8.03278 22.25 9.75479 22.25 11.9475 22.25H12H12.0525C14.2452 22.25 15.9672 22.25 17.3115 22.0693C18.6882 21.8842 19.7805 21.4969 20.6387 20.6387C21.4969 19.7805 21.8842 18.6882 22.0693 17.3115C22.25 15.9672 22.25 14.2452 22.25 12.0525Z" fill="#DC3B3B"/>
<path d="M14.2929 8.29288C14.6834 7.90238 15.3164 7.90237 15.7069 8.29288C16.0974 8.68341 16.0974 9.31643 15.7069 9.70694L13.4139 11.9999L15.7069 14.2929L15.7753 14.3691C16.0956 14.7618 16.073 15.3408 15.7069 15.7069C15.3408 16.0731 14.7618 16.0957 14.369 15.7753L14.2929 15.7069L11.9989 13.414L9.70696 15.7069L9.63078 15.7753C9.23808 16.0954 8.65896 16.0728 8.29289 15.7069C7.90238 15.3164 7.90236 14.6824 8.29289 14.2919L10.5848 11.9999L8.29289 9.70792L8.22453 9.63175C7.90389 9.23898 7.92669 8.65911 8.29289 8.29288C8.65896 7.92702 9.23808 7.90439 9.63078 8.22452L9.70696 8.29288L11.9989 10.5849L14.2929 8.29288Z" fill="#DC3B3B"/>
</svg>
