<svg width="54" height="36" viewBox="0 0 54 36" fill="none" xmlns="http://www.w3.org/2000/svg">
<g filter="url(#filter0_i_553_3290)">
<path d="M49.0046 0.120286C48.2137 2.27789 46.7637 3.79029 44.9391 4.35224L44.1621 4.59506L44.6408 4.69912C46.3475 5.06682 48.5883 7.21054 48.8797 8.73682C48.9976 9.38202 49.1017 9.33346 49.407 8.48013C50.0313 6.71797 51.5993 5.25413 53.3753 4.7685L53.9997 4.59506L53.3198 4.39387C51.6131 3.88742 49.9065 2.23626 49.3376 0.536544C49.1433 -0.0323416 49.0878 -0.108656 49.0046 0.120286Z" fill="#808080"/>
<path d="M13.8312 10.2422C11.3961 10.9152 10.3763 12.8161 11.9164 13.8151C13.1097 14.5852 15.1424 13.8845 14.5389 12.9063C13.9006 11.8726 14.414 10.8874 15.6003 10.8805C16.6201 10.8735 17.0641 12.0599 16.4744 13.2185C16.1553 13.8359 15.7946 14.0718 13.9006 14.8835C11.2019 16.0351 10.0988 17.4782 10.515 19.3166C11.188 22.3206 14.74 22.1333 15.9403 19.0391C16.3218 18.0679 16.412 18.0332 16.4953 18.8241C16.752 21.0649 18.0215 21.5367 22.4339 21.0233C23.5855 20.8845 24.3001 20.8707 25.0008 20.9747C26.1663 21.1343 26.0484 21.2592 25.8056 20.1006C25.1742 17.1105 25.8819 12.9271 27.0543 12.7051C27.8452 12.5524 28.1505 18.4217 27.4845 20.829L27.3943 21.1412H29.7045C32.2298 21.1412 32.1049 21.1967 31.8621 20.2393C31.7789 19.9341 31.6748 17.9915 31.6193 15.9241L31.5152 12.1639L31.099 11.484C30.1901 9.99246 28.317 9.74964 27.1029 10.9707C26.5271 11.5465 26.09 12.3998 25.4726 14.1689C24.0295 18.2829 21.7956 21.169 20.7688 20.2393C20.3873 19.8994 20.3456 19.5525 20.2346 15.9241L20.1375 12.712L19.7213 12.0391C18.6737 10.3393 16.19 9.58314 13.8312 10.2422ZM16.2941 15.5564C16.0929 17.7557 14.9551 19.7051 14.525 18.5812C14.2613 17.8875 14.8788 16.2849 15.8154 15.2165C16.3496 14.606 16.3773 14.6268 16.2941 15.5564Z" fill="#808080"/>
<path d="M3.79929 10.3671C0.55942 11.2829 -1.00155 15.4593 0.691235 18.6853C2.52971 22.1888 7.83006 22.3415 9.64078 18.949C10.1819 17.9361 10.2305 17.4574 9.7726 17.5892C5.96384 18.6784 2.51583 16.4931 2.33545 12.8716C2.23833 10.8736 4.26412 11.5326 5.40189 13.8637C6.17196 15.4455 8.01044 13.3919 7.46236 11.5604C7.11548 10.4088 5.50595 9.88843 3.79929 10.3671Z" fill="#808080"/>
<path d="M39.2851 10.4435C38.5358 10.7835 37.96 11.505 37.4743 12.7191L37.072 13.7111L37.0303 12.0877C36.9887 10.2701 37.0373 10.3395 35.955 10.6517C35.5734 10.7627 34.7409 10.9569 34.0888 11.0818C33.4436 11.2067 32.84 11.3315 32.7498 11.3593C32.6388 11.394 32.6596 11.6576 32.8192 12.282C33.1453 13.5724 33.1383 19.3861 32.8053 20.3713C32.5139 21.2246 32.2572 21.1344 34.9768 21.1483C37.7241 21.1691 37.4882 21.3009 37.2177 19.8926C36.5933 16.5833 37.6062 11.8796 38.7509 12.8231C39.4377 13.399 39.514 19.2196 38.8549 20.9402C38.7856 21.1136 39.1463 21.1413 41.1652 21.1413H43.5517L43.4546 20.7598C43.2118 19.8093 43.1008 18.4842 43.0175 15.5219C42.9551 13.3643 42.8649 12.1849 42.74 11.8866C42.1295 10.4227 40.6657 9.8122 39.2851 10.4435Z" fill="#808080"/>
<path d="M24.3765 10.6792C24.0366 10.7902 23.1902 10.9776 22.5033 11.1024C21.8165 11.2273 21.2338 11.3453 21.2129 11.3661C21.1921 11.3799 21.2823 11.9488 21.4141 12.6287C21.5945 13.5375 21.657 14.5712 21.6639 16.597C21.6708 18.1025 21.7194 19.3374 21.7749 19.3374C22.8572 19.3374 25.4865 13.6069 25.4865 11.2481C25.4865 10.3532 25.4588 10.3393 24.3765 10.6792Z" fill="#808080"/>
<path d="M20.4145 23.6249C19.4155 24.0759 18.7564 25.1096 17.9863 27.399C16.3629 32.2761 13.8238 34.8639 12.7068 32.7965C12.4085 32.2553 12.3669 27.6071 12.6374 25.4495C12.8872 23.4445 12.9288 23.5763 12.1518 23.8539C11.4511 24.1036 9.18942 24.6031 8.73847 24.6101C8.29446 24.6101 8.26671 24.7419 8.48872 25.9213C8.98823 28.5298 8.05165 32.1513 6.93469 31.9362C6.44211 31.846 6.3103 30.9649 6.23399 27.2117C6.19236 25.2483 6.15073 23.6388 6.13686 23.6388C6.12298 23.6388 5.6651 23.7914 5.12397 23.9718C4.58283 24.1591 3.77806 24.3811 3.33406 24.4644C1.75228 24.7696 1.89797 24.6517 2.11997 25.4773C2.22404 25.8796 2.37666 27.4822 2.45991 29.0501C2.66804 33.0185 2.96636 33.8787 4.32614 34.399C5.99117 35.0373 7.46195 33.9828 8.32221 31.5269L8.62747 30.6458L8.69685 31.9223C8.82866 34.3089 10.0081 34.8153 14.1082 34.2534C15.7871 34.0244 17.133 33.9967 17.917 34.177C18.5899 34.3366 18.576 34.3435 18.4095 33.7608C17.3689 30.1463 19.0478 23.4862 20.2064 26.6358C20.5741 27.6418 20.4214 32.9768 19.9913 34.1007C19.915 34.3019 20.1578 34.3227 22.2599 34.3227H24.6187L24.4453 33.5735C23.7029 30.3822 24.6742 25.4495 25.9507 25.9421C26.6306 26.1988 26.8041 31.0412 26.2282 33.9134L26.145 34.3227H28.4552C29.7179 34.3227 30.7585 34.3089 30.7585 34.288C30.7585 34.2672 30.6683 33.7816 30.5643 33.2127C30.4463 32.623 30.3214 30.7499 30.2729 28.9114C30.1757 25.2136 30.0786 24.7696 29.2322 23.9995C27.706 22.6259 25.7079 23.4515 24.7366 25.8588C24.5979 26.1988 24.4036 26.6705 24.2996 26.8995L24.1192 27.3157L24.1053 26.622C24.0706 24.2007 22.3015 22.7646 20.4145 23.6249Z" fill="#808080"/>
<path d="M34.6853 23.5486C29.7734 25.1651 30.5504 32.9283 35.7606 34.2673C39.944 35.3357 43.059 30.8054 41.0262 26.6081C39.8607 24.2147 36.9539 22.8063 34.6853 23.5486ZM35.3235 25.0957C37.3771 26.955 39.826 32.7479 38.7368 33.1642C38.0916 33.407 36.496 31.5616 35.3443 29.2583C33.6377 25.8242 33.6238 23.5625 35.3235 25.0957Z" fill="#808080"/>
<path d="M16.7517 23.9233C16.2591 24.0689 15.3642 24.2632 14.7745 24.3534C13.9003 24.4852 13.6991 24.5615 13.7546 24.735C14.3096 26.6775 14.5386 30.9511 14.157 32.2762C14.0252 32.7479 14.497 32.519 15.1283 31.8183C16.3493 30.4585 17.8895 26.733 18.056 24.7141C18.16 23.4654 18.2086 23.4931 16.7517 23.9233Z" fill="#808080"/>
</g>
<defs>
<filter id="filter0_i_553_3290" x="0" y="0" width="54" height="36.5815" filterUnits="userSpaceOnUse" color-interpolation-filters="sRGB">
<feFlood flood-opacity="0" result="BackgroundImageFix"/>
<feBlend mode="normal" in="SourceGraphic" in2="BackgroundImageFix" result="shape"/>
<feColorMatrix in="SourceAlpha" type="matrix" values="0 0 0 0 0 0 0 0 0 0 0 0 0 0 0 0 0 0 127 0" result="hardAlpha"/>
<feOffset dy="2"/>
<feGaussianBlur stdDeviation="1.05"/>
<feComposite in2="hardAlpha" operator="arithmetic" k2="-1" k3="1"/>
<feColorMatrix type="matrix" values="0 0 0 0 0 0 0 0 0 0 0 0 0 0 0 0 0 0 0.28 0"/>
<feBlend mode="normal" in2="shape" result="effect1_innerShadow_553_3290"/>
</filter>
</defs>
</svg>
