<svg width="121" height="35" viewBox="0 0 121 35" fill="none" xmlns="http://www.w3.org/2000/svg">
<g clip-path="url(#clip0_553_3314)">
<g filter="url(#filter0_i_553_3314)">
<path d="M117.776 17.3273H114.179L110.663 20.9656V11.6455H107.913V27.1092H110.663V24.5245L111.801 23.3713L114.488 27.1092H117.86L113.703 21.4429L117.776 17.3273Z" fill="#808080"/>
<path d="M106.893 17.2998C106.688 17.28 106.491 17.2998 106.266 17.2998C105.409 17.2998 104.016 17.4984 103.404 18.7891V17.2998H100.771V27.1092H103.485V22.6414C103.485 20.5365 104.627 19.7547 106.014 19.7547C106.259 19.7547 106.893 19.7547 106.893 19.7547V17.2998Z" fill="#808080"/>
<path d="M90.3145 24.2525C90.3145 25.7387 91.6277 27.1092 93.7825 27.1092C95.2801 27.1092 96.2446 26.6912 96.7575 25.9384L96.8505 27.1092H99.2407V25.5717V20.9006C99.2407 18.9897 98.0508 17.291 94.8496 17.291C92.1411 17.291 90.6838 18.9318 90.5196 20.418L92.9408 20.9006C93.0232 20.0706 93.6799 19.3563 94.8698 19.3563C96.0193 19.3563 96.5734 19.9162 96.5734 20.5918C96.5734 20.9199 96.3884 20.9518 95.8141 21.029L93.3309 21.3765C91.6483 21.6081 90.3145 22.5539 90.3145 24.2525ZM94.3568 25.1983C93.4747 25.1983 93.0434 24.6578 93.0434 24.0981C93.0434 23.3646 93.5975 22.9978 94.2954 22.9014L96.5734 22.5732V23.2362C96.5734 24.9155 95.5063 25.1983 94.3568 25.1983Z" fill="#808080"/>
<path d="M82.8329 21.3633C82.8943 20.2897 83.5691 19.4547 84.7142 19.4547C86.0229 19.4547 86.575 20.3095 86.575 21.403V27.1092H89.2946V20.9458C89.2946 18.7985 88.1087 17.3143 85.5526 17.3143C84.5915 17.3143 83.4873 17.387 82.8329 18.1425V11.6455H80.1133V27.1092H82.8329V21.3633Z" fill="#808080"/>
<path d="M70.9316 24.2859C71.0554 25.3445 72.0858 27.1092 75.136 27.1092C77.7945 27.1092 79.0929 25.6092 79.0929 24.0968C79.0929 22.7357 78.0831 21.6203 76.084 21.2421L74.6413 20.9586C74.0849 20.864 73.7139 20.5805 73.7139 20.1268C73.7139 19.5974 74.291 19.2004 75.0123 19.2004C76.1664 19.2004 76.5992 19.8999 76.6817 20.4482L78.9693 19.9756C78.8456 18.9735 77.8769 17.291 74.9917 17.291C72.8071 17.291 71.1996 18.6711 71.1996 20.3348C71.1996 21.6392 72.0858 22.7168 74.0437 23.1137L75.3833 23.3973C76.1665 23.5486 76.4755 23.8889 76.4755 24.3048C76.4755 24.7963 76.0427 25.2311 75.136 25.2311C73.9406 25.2311 73.343 24.5506 73.2811 23.8132L70.9316 24.2859Z" fill="#808080"/>
<path fill-rule="evenodd" clip-rule="evenodd" d="M68.1711 15.5549C68.1708 15.5416 68.1706 15.5282 68.1706 15.5147C68.1706 14.6335 68.9128 13.9192 69.8284 13.9192H70.422V11.6455H69.0836C67.0133 11.6455 65.4538 13.143 65.4538 15.2789V17.3007H63.791V19.7554H65.4538V27.1092H68.1711V19.7554H70.422V17.3007H68.1711V15.5641C68.1711 15.5611 68.1711 15.558 68.1711 15.5549Z" fill="#808080"/>
<path d="M62.7703 17.2998C62.5663 17.28 62.3685 17.2998 62.144 17.2998C61.2871 17.2998 59.8935 17.4984 59.2814 18.7891V17.2998H56.6494V27.1092H59.3631V22.6414C59.3631 20.5365 60.5048 19.7547 61.8921 19.7547C62.137 19.7547 62.7703 19.7547 62.7703 19.7547V17.2998Z" fill="#808080"/>
<path d="M52.6348 27.1092H55.1189V25.3404V17.291H52.4109V23.015C52.4109 24.1478 51.6791 24.6845 50.4779 24.6845C49.2155 24.6845 48.6454 23.81 48.6454 22.7169V17.291H45.9375V23.2535C45.9375 25.3801 47.322 27.1092 49.7449 27.1092C50.8036 27.1092 52.0037 26.9701 52.5534 26.0559L52.6348 27.1092Z" fill="#808080"/>
<path d="M44.7003 15.4346C44.3513 13.7872 42.9121 11.6455 39.1615 11.6455C36.2394 11.6455 33.7753 13.6224 33.7753 16.2172C33.7753 18.4205 35.3672 19.9239 37.8313 20.3975L39.9901 20.8094C41.1894 21.0359 41.8655 21.9403 41.8655 22.7846C41.8655 23.8143 40.9714 24.5762 39.3577 24.5762C37.1771 24.5762 36.1086 23.2789 35.9778 21.8373L33.1865 22.5375C33.4264 24.6174 35.2363 27.1092 39.336 27.1092C42.934 27.1092 44.9184 24.8439 44.9184 22.5993C44.9184 20.54 43.4137 18.5647 40.6007 18.0499L38.4419 17.6586C37.3079 17.4527 36.7628 16.8143 36.7628 16.0112C36.7628 15.0434 37.7223 14.1578 39.1833 14.1578C41.1459 14.1578 41.8436 15.414 41.9963 16.2172L44.7003 15.4346Z" fill="#808080"/>
<path d="M21.7692 6.00195C22.4474 6.01851 23.0856 6.03441 23.6052 6.12109C24.7444 6.39404 25.8243 6.96493 26.3757 8.14844C26.4643 8.3908 26.5364 8.65936 26.5925 8.95605C26.6303 9.38425 26.6661 9.94956 26.6989 10.4746C26.7159 10.7479 26.7321 11.0104 26.7477 11.2373V11.2568L26.7487 11.2549C26.9398 14.018 27.0345 16.8573 27.0651 19.5654C26.8954 23.2168 23.5845 26.1078 21.3249 27.3652C17.356 29.266 13.5183 30.9607 10.2692 32.3242L10.2682 32.3223C6.82918 33.5344 5.26756 32.3175 4.74969 30.873C4.64504 30.4801 4.60874 30.0749 4.62469 29.7012L4.89422 27.333C4.91015 27.2374 4.92689 27.141 4.94305 27.0439C5.77285 22.0619 6.92191 15.1597 8.76922 9.83105C9.24465 8.5759 11.0175 6.21885 15.2331 6H21.6725C21.7047 6.00079 21.7371 6.00117 21.7692 6.00195ZM20.947 10.959C17.2865 10.959 14.319 13.8145 14.319 17.3369V19.4717C14.3189 21.3649 12.7239 22.8994 10.7565 22.8994C10.4288 22.8995 10.1629 23.1554 10.1628 23.4707V25.3467C10.1629 25.6527 10.421 25.9011 10.739 25.9014C14.3993 25.9014 17.3667 23.0457 17.3669 19.5234V17.2578C17.3669 17.1395 17.3733 17.0225 17.3854 16.9072C17.4219 16.5616 17.512 16.2313 17.6472 15.9238C17.7372 15.7189 17.8473 15.5241 17.9753 15.3418C18.1353 15.1138 18.323 14.9052 18.5339 14.7207C18.6184 14.6467 18.7068 14.5767 18.7985 14.5107C18.8443 14.4778 18.8908 14.4458 18.9382 14.415C19.0022 14.3734 19.0676 14.3335 19.1345 14.2959C19.315 14.1944 19.5058 14.1082 19.7048 14.0381C19.9231 13.9611 20.1514 13.9038 20.3874 13.8691C20.5641 13.8432 20.7451 13.8301 20.9294 13.8301C21.1343 13.8301 21.3148 13.73 21.4216 13.5781C21.4429 13.5478 21.4612 13.5155 21.4763 13.4814C21.5064 13.413 21.5231 13.3378 21.5231 13.2588V11.5137C21.5231 11.3223 21.4225 11.1534 21.2692 11.0537L21.1716 11.0029C21.137 10.9888 21.1008 10.9771 21.0632 10.9697L20.947 10.959Z" fill="#808080"/>
</g>
</g>
<defs>
<filter id="filter0_i_553_3314" x="4" y="6" width="121" height="29" filterUnits="userSpaceOnUse" color-interpolation-filters="sRGB">
<feFlood flood-opacity="0" result="BackgroundImageFix"/>
<feBlend mode="normal" in="SourceGraphic" in2="BackgroundImageFix" result="shape"/>
<feColorMatrix in="SourceAlpha" type="matrix" values="0 0 0 0 0 0 0 0 0 0 0 0 0 0 0 0 0 0 127 0" result="hardAlpha"/>
<feOffset dy="2"/>
<feGaussianBlur stdDeviation="1.05"/>
<feComposite in2="hardAlpha" operator="arithmetic" k2="-1" k3="1"/>
<feColorMatrix type="matrix" values="0 0 0 0 0 0 0 0 0 0 0 0 0 0 0 0 0 0 0.28 0"/>
<feBlend mode="normal" in2="shape" result="effect1_innerShadow_553_3314"/>
</filter>
<clipPath id="clip0_553_3314">
<rect width="121" height="35" fill="white"/>
</clipPath>
</defs>
</svg>
