<svg width="102" height="36" viewBox="0 0 102 36" fill="none" xmlns="http://www.w3.org/2000/svg">
<g clip-path="url(#clip0_553_3288)" filter="url(#filter0_i_553_3288)">
<path d="M17.4499 9.50847C15.9775 8.52372 14.2408 7.9983 12.4638 8H8.91537C7.74441 7.99964 6.58489 8.22769 5.50303 8.67113C4.42117 9.11458 3.43817 9.76472 2.61022 10.5844C1.78227 11.4041 1.12559 12.3773 0.677722 13.4483C0.229848 14.5193 -0.000446105 15.6672 6.48756e-07 16.8264V21.6267C-0.000446031 22.7859 0.229839 23.9338 0.677699 25.005C1.12556 26.076 1.78222 27.0493 2.61015 27.869C3.43809 28.6888 4.42107 29.3391 5.50295 29.7826C6.58484 30.2262 7.74441 30.4544 8.91537 30.4542V27.481C8.13869 27.4812 7.36956 27.33 6.65187 27.0359C5.93425 26.7419 5.28214 26.3107 4.73283 25.7671C4.18351 25.2235 3.74775 24.5781 3.45042 23.8678C3.15308 23.1574 3.00001 22.3961 2.99993 21.6272V16.8264C2.99993 16.0575 3.15296 15.2962 3.45027 14.5858C3.74759 13.8755 4.18336 13.2301 4.7327 12.6866C5.28203 12.143 5.93419 11.7119 6.65182 11.4179C7.3695 11.1239 8.13869 10.9728 8.91537 10.9732H12.4638C13.2406 10.9727 14.0098 11.1237 14.7276 11.4176C15.4453 11.7116 16.0975 12.1426 16.6469 12.6862C17.1962 13.2298 17.6319 13.8753 17.9292 14.5856C18.2265 15.296 18.3794 16.0575 18.3793 16.8264V22.8849C18.3803 23.0582 18.346 23.23 18.2784 23.3898C18.1787 23.621 18.0139 23.8189 17.8035 23.9598C17.6235 24.0794 17.4163 24.1528 17.2004 24.1736C16.9846 24.1944 16.767 24.1618 16.5671 24.0787C16.3334 23.9801 16.1335 23.8169 15.9913 23.6086C15.8457 23.3957 15.7683 23.1443 15.7692 22.8872V17.7453C15.7692 15.4873 14.2488 14.0221 11.968 14.0221C11.3548 14.001 10.7456 14.129 10.194 14.395C9.64234 14.661 9.16498 15.0569 8.80373 15.5479V14.1848H5.78V24.4366H8.80033V19.942C8.80033 17.826 9.5404 16.6676 10.978 16.6676C11.2241 16.6588 11.4692 16.702 11.6971 16.7943C11.9249 16.8866 12.1303 17.026 12.2995 17.2031C12.4686 17.3801 12.5978 17.5909 12.6782 17.8213C12.7586 18.0517 12.7885 18.2964 12.7659 18.539V22.8866C12.7659 23.4465 12.8773 24.0009 13.0937 24.5182C13.3102 25.0354 13.6274 25.5054 14.0273 25.9013C14.4272 26.2972 14.9019 26.6113 15.4244 26.8255C15.947 27.0397 16.507 27.15 17.0725 27.15C17.6381 27.15 18.1981 27.0397 18.7206 26.8255C19.2431 26.6113 19.7179 26.2972 20.1178 25.9013C20.5177 25.5054 20.8349 25.0354 21.0514 24.5182C21.2678 24.0009 21.3792 23.4465 21.3792 22.8866V16.8281C21.3803 15.3827 21.0225 13.9592 20.3374 12.6828C19.6522 11.4064 18.6606 10.3164 17.4499 9.50847Z" fill="#808080"/>
<path d="M33.198 11.3406H30.7823V12.5781C30.7823 13.6911 30.2825 14.1454 29.012 14.1454H28.3037V16.2272H30.5318V21.6507C30.5318 22.785 30.865 24.6604 33.7805 24.6604C34.3982 24.6546 35.0132 24.5793 35.6137 24.436V22.4344C35.2808 22.5228 34.9383 22.5714 34.5937 22.5792C33.3436 22.5792 33.1974 21.8768 33.1974 21.2996V16.2272H35.9288V14.1454H33.198V11.3406Z" fill="#808080"/>
<path d="M42.0926 22.5563C41.7432 22.5727 41.394 22.5186 41.0663 22.3975C40.7386 22.2764 40.4391 22.0908 40.186 21.8518C39.9328 21.6128 39.7313 21.3255 39.5935 21.0072C39.4557 20.6889 39.3846 20.3463 39.3845 20H46.8826C46.903 19.7122 46.9245 19.485 46.9245 19.237C46.9245 15.5469 44.5502 13.9375 41.9883 13.9375C39.1147 13.9375 36.7393 15.9996 36.7393 19.402C36.7393 22.5771 38.9895 24.6605 42.0926 24.6605C44.7378 24.6605 46.5296 23.3193 46.9455 21.196H44.3836C44.0935 22.0834 43.2593 22.5563 42.0926 22.5563ZM41.9883 16.0412C42.2919 16.024 42.5959 16.0675 42.8822 16.169C43.1684 16.2705 43.4311 16.4281 43.6546 16.6322C43.8781 16.8363 44.0578 17.0829 44.183 17.3573C44.3083 17.6316 44.3765 17.928 44.3836 18.229H39.4054C39.4812 17.6104 39.7886 17.0426 40.2668 16.6375C40.745 16.2325 41.3593 16.0196 41.9883 16.0412Z" fill="#808080"/>
<path d="M54.0298 18.3719L53.0506 18.1239C52.051 17.8563 51.3426 17.6712 51.3426 16.9492C51.3426 16.2895 51.9048 15.8974 52.7179 15.8974C53.696 15.8974 54.2797 16.3501 54.3828 17.094H56.9453C56.8002 15.4032 55.5082 13.9385 52.6953 13.9385C50.6326 13.9385 48.7994 15.0313 48.7994 17.094C48.7994 19.1135 50.3827 19.6716 51.7784 20.0004L52.7565 20.2483C53.8819 20.5361 54.5896 20.8654 54.5896 21.6508C54.5896 22.3929 53.8813 22.7026 53.0693 22.7026C52.0085 22.7026 51.1738 22.269 51.0293 21.1554H48.4668C48.6113 23.2798 50.1543 24.6621 53.0902 24.6621C55.3002 24.6621 57.1317 23.7118 57.1317 21.5885C57.1317 19.6498 55.8397 18.8251 54.0275 18.3724" fill="#808080"/>
<path d="M64.0474 13.939C60.9234 13.939 58.5508 16.1049 58.5508 19.2795C58.5655 20.7137 59.1515 22.0843 60.1811 23.0934C61.2107 24.1024 62.6013 24.6685 64.0497 24.6685C65.4987 24.6685 66.8893 24.1024 67.9189 23.0934C68.9485 22.0843 69.5345 20.7137 69.5492 19.2795C69.5492 16.124 67.1737 13.939 64.0525 13.939H64.0474ZM64.0525 22.3727C62.3446 22.3727 61.2192 21.0123 61.2192 19.2795C61.2192 17.5685 62.3429 16.2272 64.0525 16.2272C65.7622 16.2272 66.9063 17.5685 66.9063 19.2795C66.9063 21.0123 65.7809 22.3727 64.0525 22.3727Z" fill="#808080"/>
<path d="M77.358 13.9389C76.7687 13.9047 76.1799 14.0169 75.6456 14.2652C75.1112 14.5136 74.6482 14.8902 74.298 15.3609H74.132L73.9025 14.1453H71.4658V24.4555H74.1292V18.867C74.1292 17.0326 75.2546 16.2271 76.5245 16.2271C77.7745 16.2271 78.7537 17.0517 78.7537 18.7425V24.4555H81.4171V18.2073C81.4171 15.5057 79.8344 13.9389 77.3558 13.9389" fill="#808080"/>
<path d="M88.6277 22.5563C88.2781 22.5727 87.929 22.5186 87.6015 22.3975C87.2739 22.2764 86.9742 22.0908 86.7209 21.8518C86.4681 21.6128 86.2664 21.3255 86.1287 21.0072C85.991 20.6889 85.9196 20.3463 85.9196 20H93.4178C93.4382 19.7122 93.4597 19.485 93.4597 19.237C93.4597 15.5469 91.0859 13.9375 88.5234 13.9375C85.6499 13.9375 83.2744 15.9996 83.2744 19.402C83.2744 22.5771 85.5247 24.6605 88.6277 24.6605C91.2735 24.6605 93.0653 23.3193 93.4806 21.196H90.9165C90.6269 22.0834 89.7945 22.5563 88.6277 22.5563ZM88.5234 16.0412C88.8272 16.024 89.1309 16.0675 89.4171 16.169C89.7038 16.2705 89.9662 16.4281 90.19 16.6322C90.4133 16.8363 90.5929 17.0829 90.7181 17.3573C90.8434 17.6316 90.9114 17.928 90.9188 18.229H85.9412C86.0165 17.6104 86.3237 17.0425 86.8019 16.6374C87.2802 16.2323 87.8944 16.0195 88.5234 16.0412Z" fill="#808080"/>
<path d="M102 16.2272V14.1454H99.2713V11.3406H96.8556V12.5747C96.8556 13.6888 96.3563 14.1454 95.0853 14.1454H94.377V16.2272H96.6068V21.6496C96.6068 22.7839 96.9394 24.6609 99.8555 24.6609C100.473 24.6549 101.087 24.5786 101.688 24.4337V22.4344C101.354 22.5225 101.012 22.5705 100.668 22.5775C99.4169 22.5775 99.2707 21.8768 99.2707 21.2996V16.2272H102Z" fill="#808080"/>
</g>
<defs>
<filter id="filter0_i_553_3288" x="0" y="8" width="102" height="25" filterUnits="userSpaceOnUse" color-interpolation-filters="sRGB">
<feFlood flood-opacity="0" result="BackgroundImageFix"/>
<feBlend mode="normal" in="SourceGraphic" in2="BackgroundImageFix" result="shape"/>
<feColorMatrix in="SourceAlpha" type="matrix" values="0 0 0 0 0 0 0 0 0 0 0 0 0 0 0 0 0 0 127 0" result="hardAlpha"/>
<feOffset dy="2"/>
<feGaussianBlur stdDeviation="1.05"/>
<feComposite in2="hardAlpha" operator="arithmetic" k2="-1" k3="1"/>
<feColorMatrix type="matrix" values="0 0 0 0 0 0 0 0 0 0 0 0 0 0 0 0 0 0 0.28 0"/>
<feBlend mode="normal" in2="shape" result="effect1_innerShadow_553_3288"/>
</filter>
<clipPath id="clip0_553_3288">
<rect width="102" height="23" fill="white" transform="translate(0 8)"/>
</clipPath>
</defs>
</svg>
