<svg width="44" height="36" viewBox="0 0 44 36" fill="none" xmlns="http://www.w3.org/2000/svg">
<g filter="url(#filter0_i_553_3292)">
<path d="M0.0341238 7.27128C0.0127293 7.29802 0.00738073 7.99601 0.010055 9.85733L0.018078 12.4086L3.69525 12.4273C6.73326 12.4407 7.44196 12.4514 7.77357 12.4862C8.31378 12.5397 8.50633 12.5985 8.71225 12.759C9.00643 12.9943 8.86469 13.3794 8.33517 13.7779C8.23623 13.8501 7.74415 14.1523 7.65323 14.1951C7.63183 14.2058 7.57835 14.2378 7.53288 14.2646C7.49009 14.294 7.40452 14.3421 7.34568 14.3742C7.28685 14.4063 7.17987 14.4678 7.10499 14.5079C6.66908 14.7486 6.39363 14.8984 6.07538 15.0642C5.96574 15.123 5.83202 15.1952 5.78121 15.2247C5.7304 15.2568 5.6154 15.3183 5.52715 15.3611C5.4389 15.4065 5.27042 15.4974 5.15275 15.5616C5.03508 15.6285 4.87997 15.7114 4.80509 15.7488C4.73288 15.7863 4.5644 15.8772 4.43069 15.9521C4.29964 16.027 4.13116 16.1179 4.05628 16.1553C3.98408 16.1928 3.85036 16.2623 3.76211 16.3131C3.67386 16.3612 3.54282 16.4335 3.46793 16.4709C3.39573 16.5083 3.22725 16.5993 3.09353 16.6741C2.96249 16.7463 2.79401 16.8373 2.71913 16.8747C2.55867 16.9576 2.33938 17.0753 2.05055 17.2357C1.93288 17.2999 1.76975 17.3882 1.68952 17.431C1.60929 17.4738 1.47023 17.5486 1.38197 17.5968C1.29372 17.6449 1.16268 17.7171 1.0878 17.7546C1.01559 17.792 0.847113 17.8829 0.713398 17.9551C0.582357 18.03 0.389807 18.1316 0.285509 18.1851C0.183885 18.2386 0.0769127 18.3028 0.052844 18.3242C0.00738073 18.3643 0.00470642 18.5408 0.00470642 21.2739C0.00470642 23.4963 0.0127293 24.1863 0.0367981 24.2103C0.0608669 24.2344 0.879205 24.2424 3.54549 24.2424C7.81636 24.2451 8.12658 24.2585 8.56784 24.4671C8.72027 24.5393 8.8005 24.6249 8.85132 24.7719C8.9048 24.9271 8.79516 25.1704 8.58121 25.3737C8.49563 25.4566 8.14262 25.7186 8.08112 25.7481C8.05972 25.7588 8.00623 25.7909 7.96077 25.8203C7.91798 25.8497 7.85647 25.8845 7.82706 25.9005C7.79764 25.9165 7.7388 25.9513 7.69334 25.9781C7.65055 26.0075 7.55963 26.061 7.49277 26.0957C7.42591 26.1332 7.32963 26.1866 7.27882 26.2161C7.22801 26.2482 7.12639 26.3043 7.05151 26.3418C6.88837 26.4247 6.58618 26.5905 6.08876 26.8632C6.01655 26.9034 5.86411 26.9836 5.75447 27.0424C5.56994 27.1387 5.42285 27.2216 4.96555 27.4703C4.8773 27.5158 4.74625 27.588 4.67137 27.6254C4.52161 27.703 4.31569 27.8153 4.01082 27.9811C3.75141 28.1228 3.51875 28.2485 3.2941 28.3689C3.19783 28.4197 3.05074 28.4973 2.96517 28.5454C2.88226 28.5909 2.7432 28.6657 2.66029 28.7112C2.57472 28.7593 2.42763 28.8369 2.33135 28.8877C2.12008 29 1.90881 29.1123 1.62266 29.2701C1.18942 29.5081 0.978154 29.6205 0.900599 29.6606C0.857811 29.682 0.748164 29.7408 0.659912 29.7889C0.57166 29.8371 0.403178 29.928 0.285509 29.9895C0.167839 30.051 0.0555183 30.1206 0.0367981 30.1446C-0.0140137 30.2142 -0.0113394 35.9773 0.0394724 35.9987C0.0742384 36.0121 0.256091 35.9238 0.606426 35.7259C0.694678 35.6778 0.78293 35.6296 0.80165 35.6216C0.817696 35.6136 0.849788 35.6029 0.868508 35.5949C0.884554 35.5868 0.972806 35.5387 1.06106 35.4879C1.14931 35.4344 1.28303 35.3622 1.35523 35.3248C1.53174 35.2365 1.73498 35.1269 2.31798 34.8059C2.39286 34.7658 2.56669 34.6722 2.70576 34.5973C2.84482 34.5251 3.00261 34.4422 3.05342 34.4128C3.33689 34.255 3.86373 33.9716 4.02954 33.886C4.10442 33.8485 4.24081 33.7737 4.33708 33.7202C4.6473 33.549 4.82648 33.4501 5.05915 33.3297C5.18484 33.2629 5.37204 33.1639 5.47367 33.1051C5.72505 32.9687 5.94969 32.8457 6.12887 32.7547C6.28131 32.6745 6.55141 32.5274 6.85093 32.3616C6.94721 32.3081 7.08627 32.2333 7.15848 32.1958C7.23336 32.1584 7.3644 32.0888 7.45265 32.038C7.54091 31.9899 7.70939 31.899 7.82706 31.8375C7.94473 31.776 8.11321 31.685 8.20146 31.6342C8.28971 31.5834 8.42343 31.5112 8.49563 31.4738C8.63202 31.4042 8.78713 31.3213 9.15084 31.1234C9.26049 31.0646 9.41827 30.979 9.4985 30.9335C9.57873 30.8908 9.69372 30.8292 9.74988 30.7945C9.80872 30.7624 9.91034 30.7062 9.9772 30.6688C10.0441 30.634 10.1377 30.5805 10.1804 30.5538C10.2259 30.5271 10.2901 30.4869 10.3275 30.4682C10.3944 30.4308 10.7314 30.2275 10.849 30.1526C11.0523 30.0243 11.2983 29.8692 11.3384 29.8451C11.3625 29.8291 11.4561 29.7702 11.5443 29.7087C11.6326 29.6499 11.7663 29.559 11.8385 29.5108C11.9134 29.46 12.1648 29.2755 12.4001 29.099C12.7906 28.8075 12.9296 28.6951 13.2559 28.4143C13.3147 28.3635 13.5688 28.1175 13.8175 27.8661C14.462 27.2243 14.8578 26.6921 15.1894 26.0208C15.3124 25.7721 15.4488 25.4325 15.4783 25.2988C15.4863 25.2694 15.5077 25.1838 15.5291 25.1116C15.6334 24.7345 15.6548 24.558 15.6548 24.0686C15.6548 23.5712 15.6414 23.4535 15.5237 22.9989C15.4515 22.7127 15.3231 22.4105 15.1038 22.0094C14.9006 21.6377 14.3738 21.068 13.9191 20.7284C13.7694 20.6161 13.641 20.5251 13.6357 20.5251C13.6276 20.5251 13.5581 20.485 13.4832 20.4342C13.3549 20.3513 12.8441 20.0892 12.6355 19.9983C12.4108 19.9047 12.3654 19.886 12.2664 19.8485C12.2076 19.8245 12.0926 19.787 12.0123 19.763C11.9321 19.7362 11.8251 19.6988 11.777 19.6801C11.7289 19.6587 11.67 19.6426 11.6433 19.6426C11.6192 19.6426 11.5443 19.6266 11.4775 19.6052C11.2609 19.5356 11.0309 19.4822 10.4292 19.3645C10.1457 19.3083 9.85418 19.2629 9.6857 19.2495C9.60547 19.2441 9.5092 19.2335 9.47176 19.2254L9.4049 19.2094L9.47176 19.1586C9.5092 19.1318 9.56803 19.0917 9.60547 19.073C9.89697 18.9179 10.0173 18.8484 10.5762 18.5114C10.8223 18.3616 11.0469 18.2252 11.071 18.2119C11.0951 18.1958 11.1887 18.137 11.2769 18.0781C11.3652 18.0193 11.4588 17.9605 11.4828 17.9444C11.7182 17.8054 12.6488 17.1341 12.7638 17.0245C12.7879 17.0004 12.8895 16.9148 12.9885 16.8346C13.3709 16.5244 13.986 15.9307 14.2748 15.591C14.4486 15.3851 14.7669 14.9733 14.7669 14.9519C14.7669 14.9465 14.815 14.8663 14.8765 14.7754C14.9862 14.6096 15.3044 14.0052 15.3338 13.9036C15.3445 13.8768 15.3766 13.7859 15.4087 13.7057C15.4408 13.6254 15.4783 13.5158 15.4889 13.465C15.5023 13.4142 15.5237 13.3232 15.5398 13.2644C15.6414 12.8686 15.6548 12.7456 15.6548 12.2294C15.6548 11.9406 15.6467 11.6892 15.636 11.6732C15.6253 11.6571 15.6013 11.5582 15.5799 11.4512C15.4996 11.0207 15.2937 10.4938 15.0851 10.1809C15.0423 10.1167 15.0076 10.0606 15.0076 10.0526C15.0076 9.97233 14.2668 9.18073 14.0047 8.98016C13.8737 8.88121 13.5608 8.66726 13.51 8.6432C13.4886 8.6325 13.4351 8.60041 13.3896 8.57366C13.3067 8.52018 12.812 8.27147 12.6622 8.20728C12.3359 8.06822 12.2263 8.02543 12.0391 7.96927C11.9589 7.94253 11.8519 7.90509 11.8038 7.88637C11.7556 7.86497 11.6968 7.84893 11.6754 7.84893C11.6513 7.84893 11.5764 7.83021 11.5069 7.80881C11.1887 7.70986 10.4987 7.56278 10.02 7.49057C8.49831 7.26325 7.73346 7.23384 3.42515 7.23384C0.625146 7.23384 0.0608669 7.23918 0.0341238 7.27128Z" fill="#808080"/>
<path d="M20.3168 14.1039C20.1456 14.1253 19.8889 14.1922 19.806 14.2349C19.7766 14.2483 19.707 14.2831 19.6482 14.3098C19.3727 14.4382 18.9449 14.8286 18.8513 15.0426C18.8406 15.064 18.8085 15.1175 18.779 15.1629C18.7496 15.2057 18.7202 15.2619 18.7095 15.2833C18.7015 15.3047 18.6828 15.3448 18.6667 15.3742C18.6373 15.4304 18.5865 15.5855 18.5063 15.8716C18.4581 16.0428 18.4501 16.1497 18.4474 16.6204C18.4448 17.1794 18.4742 17.404 18.5811 17.6581C18.6025 17.7062 18.6186 17.7624 18.6186 17.7811C18.6186 17.8239 18.7871 18.1421 18.894 18.3052C19.0812 18.586 19.4717 18.907 19.7819 19.03C20.1215 19.1664 20.167 19.1744 20.6511 19.1744C21.0629 19.1744 21.1378 19.1664 21.2795 19.1156C21.6593 18.9792 21.7983 18.8963 22.0417 18.6609C22.1968 18.5112 22.2744 18.4871 22.3519 18.5646C22.4321 18.6449 22.3733 19.3589 22.2637 19.6558C22.138 19.9927 21.908 20.2735 21.6673 20.3832C21.3277 20.541 21.3357 20.5383 20.8383 20.5383C20.3542 20.5356 20.1911 20.5062 19.9397 20.3805C19.7739 20.2949 19.6081 20.1211 19.5278 19.9473C19.4824 19.8537 19.4262 19.7681 19.3995 19.7547C19.3754 19.7413 19.1909 19.7333 18.993 19.7333C18.5731 19.736 18.5758 19.7333 18.6694 20.0061C18.8111 20.4233 19.0385 20.7121 19.3808 20.9154C19.6134 21.0518 19.8782 21.1667 19.9664 21.1667C20.0012 21.1667 20.0814 21.1855 20.1456 21.2095C20.3194 21.2737 21.3598 21.2764 21.5336 21.2122C21.6004 21.1881 21.6753 21.1667 21.6994 21.1667C21.7502 21.1667 21.8572 21.124 22.1086 21.0009C22.5097 20.803 22.8948 20.3778 23.0472 19.9526C23.213 19.498 23.1997 19.7253 23.2104 16.8611C23.2211 14.4061 23.2184 14.2537 23.1756 14.2216C23.1435 14.1975 23.0232 14.1868 22.8012 14.1868C22.3867 14.1868 22.3894 14.1841 22.3894 14.5104V14.7484H22.2877C22.2022 14.7484 22.1701 14.7324 22.1059 14.6521C21.9641 14.481 21.5015 14.1868 21.3704 14.1868C21.3464 14.1868 21.2849 14.1708 21.2367 14.1494C21.1271 14.1039 20.5468 14.0772 20.3168 14.1039ZM21.2555 14.8714C21.5042 14.949 21.7235 15.08 21.8866 15.2458C21.9722 15.3341 22.0604 15.4357 22.0818 15.4731C22.3065 15.8823 22.3894 16.1979 22.3894 16.6525C22.3894 17.3024 22.1567 17.8506 21.7502 18.1528C21.4293 18.3935 21.2661 18.4443 20.8169 18.4443C20.4719 18.4443 20.3435 18.4202 20.1162 18.3106C19.806 18.1608 19.5225 17.8239 19.3941 17.4495C19.33 17.2649 19.2604 16.8451 19.2604 16.6472C19.2604 16.4252 19.3246 16.0241 19.3861 15.8582C19.5813 15.3394 19.8835 15.0265 20.3301 14.8821C20.528 14.8179 21.0656 14.8099 21.2555 14.8714Z" fill="#808080"/>
<path d="M29.6771 14.1095C29.1315 14.171 28.6742 14.3983 28.2838 14.8075C28.0591 15.0401 27.8238 15.4279 27.7623 15.6713C27.7516 15.714 27.7302 15.7862 27.7168 15.8317C27.6366 16.0617 27.6045 16.3318 27.6045 16.7276C27.6045 16.9549 27.6179 17.1876 27.6339 17.2464C27.65 17.3026 27.6713 17.4042 27.6847 17.4737C27.773 17.9765 28.1206 18.5381 28.5405 18.8564C28.848 19.089 29.0005 19.1639 29.3963 19.2735C29.6637 19.3457 30.4874 19.3538 30.6799 19.2842C30.7468 19.2628 30.8217 19.2415 30.8458 19.2415C30.8912 19.2415 30.9768 19.2067 31.2014 19.1024C31.509 18.958 31.8299 18.6825 32.0492 18.3723C32.2016 18.1584 32.3701 17.8 32.4102 17.6101C32.4156 17.5727 32.4423 17.4818 32.4664 17.4096C32.4985 17.3053 32.5092 17.1582 32.5118 16.741C32.5118 16.1954 32.4824 15.9681 32.3755 15.7167C32.3541 15.6686 32.338 15.6178 32.338 15.6017C32.338 15.4894 31.9877 14.9331 31.8058 14.7566C31.6908 14.6443 31.4154 14.4277 31.386 14.4277C31.3753 14.4277 31.3458 14.4117 31.3245 14.3929C31.2683 14.3448 30.9153 14.2031 30.7468 14.1603C30.4687 14.0881 30.0435 14.0667 29.6771 14.1095ZM30.5329 14.8797C30.6211 14.9091 30.7361 14.9519 30.7869 14.9786C31.3057 15.2353 31.64 15.8371 31.6855 16.6046C31.6989 16.7864 31.6882 16.9175 31.648 17.1287C31.5865 17.4443 31.5598 17.5299 31.4501 17.7545C31.2469 18.1637 30.9607 18.4124 30.5329 18.5488C30.3109 18.6183 29.8215 18.6183 29.5969 18.5488C28.9363 18.3402 28.5485 17.8053 28.4629 16.9736C28.3827 16.2168 28.6448 15.4734 29.1101 15.1257C29.2866 14.9947 29.3428 14.9652 29.5567 14.893C29.7947 14.8101 30.2948 14.8048 30.5329 14.8797Z" fill="#808080"/>
<path d="M41.2832 14.1067C41.0987 14.1308 40.9195 14.1763 40.7885 14.2324C40.751 14.2485 40.7029 14.2699 40.6815 14.2806C40.5585 14.3287 40.382 14.4571 40.2269 14.6068C40.0985 14.7299 40.0664 14.7486 39.9862 14.7432L39.8926 14.7352L39.8846 14.4892C39.8792 14.326 39.8659 14.2351 39.8418 14.2164C39.8177 14.195 39.684 14.187 39.4487 14.1923L39.0903 14.2003L39.0769 17.6636C39.0689 19.5677 39.0716 21.1455 39.0823 21.1669C39.0957 21.199 39.1732 21.207 39.4754 21.2097C39.7268 21.2124 39.8605 21.2044 39.8739 21.183C39.8846 21.1669 39.8979 20.6 39.906 19.9234L39.9193 18.6932L40.0103 18.6852C40.0905 18.6771 40.1172 18.6905 40.2108 18.7921C40.3579 18.9526 40.4997 19.0542 40.7083 19.1532C41.0372 19.3056 41.1629 19.3297 41.6309 19.3297C42.0641 19.3297 42.2513 19.3003 42.4546 19.1986C42.4974 19.1772 42.5402 19.1612 42.5535 19.1612C42.5669 19.1612 42.6525 19.1157 42.7434 19.0622C43.2435 18.7654 43.6179 18.1984 43.765 17.5165C43.8479 17.1394 43.8693 16.7195 43.8265 16.3184C43.8051 16.1178 43.7784 15.9386 43.7703 15.9253C43.7623 15.9119 43.7463 15.8504 43.7329 15.7862C43.6259 15.2781 43.2488 14.7085 42.8343 14.4303C42.6872 14.3314 42.4091 14.203 42.2326 14.1522C42.0534 14.0987 41.54 14.0747 41.2832 14.1067ZM41.9251 14.8796C42.1203 14.9411 42.1818 14.9732 42.353 15.1016C42.4867 15.2005 42.6418 15.3663 42.7033 15.4787C42.8183 15.6846 42.8958 15.8878 42.9306 16.059C42.944 16.1259 42.9654 16.2275 42.9787 16.2863C42.9948 16.3451 43.0082 16.5377 43.0082 16.7142C43.0082 16.8907 42.9948 17.0833 42.9787 17.1421C42.9654 17.2009 42.944 17.3025 42.9306 17.3694C42.8958 17.5406 42.8183 17.7438 42.7033 17.9497C42.607 18.1209 42.3583 18.3535 42.1524 18.4605C41.9732 18.5568 41.7619 18.5996 41.4571 18.5996C41.1495 18.5996 41.0185 18.5755 40.7885 18.4685C40.5211 18.3429 40.2804 18.1048 40.144 17.8214C40.0129 17.5566 39.9915 17.4844 39.93 17.1555C39.8765 16.8559 39.8685 16.6366 39.906 16.42C39.9193 16.3451 39.9381 16.2328 39.9461 16.166C39.9915 15.8611 40.1868 15.4573 40.3873 15.254C40.5826 15.0561 40.7083 14.9786 41.0024 14.8743C41.1843 14.8101 41.7165 14.8128 41.9251 14.8796Z" fill="#808080"/>
<path d="M24.6545 14.2057C24.6438 14.2138 24.6357 15.345 24.6357 16.7169C24.6357 18.9633 24.6411 19.2094 24.6785 19.2254C24.7026 19.2334 24.8764 19.2415 25.0636 19.2415C25.3792 19.2415 25.4113 19.2361 25.438 19.1906C25.4541 19.1559 25.4648 18.6825 25.4648 17.8348C25.4648 16.3612 25.4835 16.166 25.6493 15.8183C25.7616 15.583 26.0157 15.2969 26.1735 15.2273C26.2029 15.2139 26.2457 15.1926 26.2671 15.1792C26.4356 15.0776 26.7458 15.0107 27.1469 14.992L27.4839 14.9759L27.4919 14.6229C27.4999 14.1656 27.5053 14.1736 27.1362 14.1977C26.7083 14.2245 26.4302 14.286 26.1735 14.409C25.9943 14.4946 25.9595 14.5186 25.8017 14.655C25.6413 14.7994 25.5584 14.8342 25.4862 14.7968C25.4461 14.778 25.438 14.7326 25.438 14.4972C25.438 14.2672 25.43 14.2164 25.3952 14.2031C25.3391 14.1817 24.6759 14.1817 24.6545 14.2057Z" fill="#808080"/>
<path d="M33.4236 14.219C33.3862 14.2404 33.3809 14.4009 33.3809 15.8797C33.3809 17.3453 33.3862 17.5485 33.4317 17.8106C33.4584 17.9711 33.4932 18.1342 33.5092 18.1716C33.5226 18.2091 33.5574 18.292 33.5841 18.3588C33.7365 18.7279 34.0387 19.0194 34.4506 19.1959C34.7207 19.3109 34.8491 19.3323 35.2876 19.3323C35.7209 19.3296 35.8787 19.3055 36.122 19.1986C36.1675 19.1798 36.221 19.1584 36.2424 19.1477C36.36 19.0996 36.6114 18.9178 36.7371 18.7894C36.8387 18.6851 36.9083 18.6583 37.0019 18.6958C37.0366 18.7092 37.0447 18.7573 37.0447 18.9498C37.0447 19.1504 37.0527 19.1905 37.0928 19.2119C37.1383 19.236 37.8095 19.2333 37.8336 19.2093C37.855 19.1905 37.8523 14.2377 37.8336 14.2163C37.8015 14.1842 37.1062 14.1816 37.0473 14.2137C36.9912 14.2431 36.9912 14.2511 36.9912 15.7487C36.9912 17.3479 36.9938 17.3239 36.8628 17.6501C36.5874 18.3428 35.8145 18.7439 35.1245 18.5487C34.841 18.4685 34.7474 18.4177 34.6003 18.2706C34.4452 18.1155 34.3891 18.0219 34.3169 17.7839C34.2687 17.6341 34.2661 17.5004 34.258 15.9306C34.25 14.4624 34.2447 14.235 34.2099 14.2137C34.1591 14.1816 33.4825 14.1869 33.4236 14.219Z" fill="#808080"/>
</g>
<defs>
<filter id="filter0_i_553_3292" x="0" y="7.23389" width="43.8477" height="30.7661" filterUnits="userSpaceOnUse" color-interpolation-filters="sRGB">
<feFlood flood-opacity="0" result="BackgroundImageFix"/>
<feBlend mode="normal" in="SourceGraphic" in2="BackgroundImageFix" result="shape"/>
<feColorMatrix in="SourceAlpha" type="matrix" values="0 0 0 0 0 0 0 0 0 0 0 0 0 0 0 0 0 0 127 0" result="hardAlpha"/>
<feOffset dy="2"/>
<feGaussianBlur stdDeviation="1.05"/>
<feComposite in2="hardAlpha" operator="arithmetic" k2="-1" k3="1"/>
<feColorMatrix type="matrix" values="0 0 0 0 0 0 0 0 0 0 0 0 0 0 0 0 0 0 0.28 0"/>
<feBlend mode="normal" in2="shape" result="effect1_innerShadow_553_3292"/>
</filter>
</defs>
</svg>
