<svg width="72" height="36" viewBox="0 0 72 36" fill="none" xmlns="http://www.w3.org/2000/svg">
<g filter="url(#filter0_i_553_3289)">
<path d="M63.1446 27.6813C63.1175 27.1329 63.2021 26.5846 63.3935 26.0688C63.5849 25.553 63.8792 25.0801 64.2591 24.678C64.639 24.2758 65.0968 23.9525 65.6055 23.727C66.1143 23.5016 66.6637 23.3786 67.2215 23.3653C67.7672 23.3467 68.3094 23.4575 68.8024 23.6883C69.2954 23.9191 69.7249 24.2632 70.0545 24.6915V23.5671H72V31.7935H70.0545V30.6023C69.7291 31.0399 69.3022 31.3948 68.8093 31.6372C68.3164 31.8796 67.7718 32.0026 67.2209 31.9959C66.6632 31.9825 66.114 31.8595 65.6054 31.6342C65.0968 31.4088 64.6391 31.0856 64.2593 30.6836C63.8795 30.2815 63.5853 29.8088 63.3938 29.2933C63.2024 28.7777 63.1177 28.2296 63.1446 27.6813ZM65.1238 27.6813C65.1403 28.1659 65.3015 28.6349 65.5871 29.03C65.8727 29.425 66.2702 29.7286 66.7299 29.9028C67.1897 30.077 67.6914 30.1142 68.1724 30.0097C68.6535 29.9052 69.0927 29.6636 69.4352 29.3151C69.7777 28.9666 70.0084 28.5266 70.0985 28.0499C70.1886 27.5733 70.1341 27.081 69.9419 26.6346C69.7496 26.1882 69.4281 25.8074 69.0174 25.5396C68.6067 25.2718 68.125 25.129 67.6323 25.1288C67.2964 25.1316 66.9645 25.2001 66.6558 25.3304C66.3471 25.4607 66.0679 25.6502 65.8343 25.8877C65.6008 26.1253 65.4176 26.4062 65.2955 26.7142C65.1734 27.0221 65.1155 27.3509 65.1238 27.6813ZM36.6409 27.6813C36.6137 27.1329 36.6983 26.5846 36.8897 26.0688C37.0811 25.553 37.3754 25.0801 37.7553 24.678C38.1352 24.2758 38.593 23.9525 39.1018 23.727C39.6105 23.5016 40.16 23.3786 40.7178 23.3653C41.2627 23.3474 41.8041 23.4585 42.2963 23.6893C42.7886 23.9201 43.2173 24.2638 43.5466 24.6915V23.5671H45.4914V31.7935H43.5466V30.6023C43.2216 31.0393 42.7954 31.3938 42.3032 31.6362C41.8111 31.8786 41.2674 32.0019 40.7171 31.9959C40.1594 31.9826 39.6101 31.8597 39.1014 31.6344C38.5927 31.409 38.135 31.0858 37.7551 30.6838C37.3753 30.2818 37.0809 29.809 36.8894 29.2934C36.698 28.7778 36.6139 28.2297 36.6409 27.6813ZM38.6186 27.6813C38.6351 28.1661 38.7961 28.6354 39.0818 29.0306C39.3674 29.4259 39.765 29.7296 40.2249 29.904C40.6848 30.0784 41.1867 30.1156 41.668 30.0111C42.1493 29.9066 42.5886 29.6649 42.9313 29.3163C43.2739 28.9676 43.5047 28.5274 43.5948 28.0506C43.6849 27.5737 43.6303 27.0813 43.438 26.6347C43.2456 26.1882 42.9238 25.8072 42.5129 25.5394C42.102 25.2717 41.62 25.1288 41.1272 25.1288C40.7914 25.1318 40.4596 25.2004 40.151 25.3308C39.8424 25.4612 39.5633 25.6506 39.3299 25.8882C39.0964 26.1257 38.9133 26.4066 38.7912 26.7144C38.6691 27.0223 38.6104 27.3509 38.6186 27.6813ZM27.7505 28.5202V23.5671H29.7296V28.149C29.7296 29.4253 30.377 30.198 31.538 30.198C32.7148 30.198 33.4822 29.3085 33.4822 27.898V23.5671H35.4627V31.7935H33.4822V30.7028C33.2082 31.1161 32.8301 31.4525 32.3847 31.6791C31.9392 31.9057 31.4418 32.0149 30.9407 31.9959C28.9444 31.9959 27.7505 30.6698 27.7505 28.5202ZM12.9508 29.2626V25.2132H11.7055V23.5671H12.9508V21.1301H14.9128V23.5651H17.1306V25.2105H14.9128V28.9049C14.9128 29.8275 15.3243 30.2142 16.2089 30.2142C16.5353 30.2267 16.8575 30.1387 17.1306 29.9625V31.6922C16.665 31.918 16.1484 32.0225 15.6301 31.9959C13.9411 31.9959 12.9508 30.989 12.9508 29.2592V29.2626ZM54.329 30.9681L49.6911 25.6721C49.632 25.6051 49.5536 25.5574 49.4662 25.5354C49.3789 25.5134 49.2868 25.5182 49.2023 25.5491C49.1177 25.58 49.0448 25.6355 48.9932 25.7083C48.9416 25.781 48.9138 25.8675 48.9134 25.9563V31.7935H46.9329V25.9556C46.9328 25.469 47.084 24.994 47.3663 24.5945C47.6485 24.1949 48.0482 23.8899 48.5117 23.7205C48.9752 23.5511 49.4803 23.5253 49.9591 23.6466C50.4379 23.768 50.8675 24.0306 51.1902 24.3993L55.8295 29.6918C55.8884 29.7588 55.9667 29.8065 56.0539 29.8285C56.1412 29.8505 56.2331 29.8457 56.3175 29.8148C56.4019 29.7839 56.4747 29.7283 56.5261 29.6556C56.5775 29.5828 56.605 29.4963 56.6051 29.4077V23.5671H58.5842V29.4084C58.5872 29.8952 58.4373 30.3711 58.1549 30.7708C57.8726 31.1706 57.4716 31.4747 57.0069 31.6416C56.7341 31.7421 56.4452 31.7938 56.1538 31.7942C55.8068 31.7939 55.464 31.7197 55.1489 31.5765C54.8339 31.4333 54.5542 31.2246 54.329 30.9647V30.9681ZM60.0593 31.7935V23.5671H62.0385V31.7935H60.0593ZM24.3751 31.7935V27.2109C24.3751 25.9353 23.7277 25.1619 22.516 25.1619C21.3385 25.1619 20.5533 26.0521 20.5533 27.4626V31.7935H18.5742V20.0415H20.5526V24.6584C20.8292 24.2439 21.2102 23.9069 21.6585 23.6802C22.1068 23.4536 22.607 23.3451 23.1106 23.3653C25.1576 23.3653 26.3522 24.6915 26.3522 26.8411V31.7935H24.3751ZM8.35683 31.7935V23.5671H10.3346V31.7935H8.35683ZM0.121382 31.7935V20.0415H2.16979V29.9139H6.8495V31.7935H0.121382ZM59.82 21.1658C59.8184 20.9278 59.8887 20.6946 60.022 20.496C60.1553 20.2973 60.3457 20.1422 60.5688 20.0502C60.7919 19.9583 61.0378 19.9337 61.2752 19.9796C61.5125 20.0255 61.7307 20.1398 61.9019 20.308C62.0731 20.4762 62.1896 20.6907 62.2366 20.9242C62.2837 21.1578 62.2591 21.3998 62.1661 21.6195C62.0731 21.8393 61.9157 22.0269 61.7141 22.1584C61.5125 22.29 61.2757 22.3596 61.0338 22.3584C60.7127 22.357 60.4051 22.2309 60.1778 22.0076C59.9506 21.7844 59.822 21.4819 59.82 21.1658ZM8.11818 21.1658C8.11669 20.9277 8.18722 20.6946 8.32077 20.496C8.45433 20.2975 8.64489 20.1426 8.86819 20.0509C9.0915 19.9593 9.33746 19.9351 9.57477 19.9814C9.81209 20.0278 10.03 20.1426 10.2009 20.3112C10.3717 20.4798 10.4877 20.6946 10.5341 20.9283C10.5805 21.1619 10.5553 21.4039 10.4615 21.6234C10.3678 21.8429 10.2098 22.03 10.0077 22.1609C9.80555 22.2918 9.56845 22.3605 9.32651 22.3584C9.00623 22.3559 8.69983 22.2294 8.47367 22.0061C8.24751 21.7829 8.1198 21.481 8.11818 21.1658ZM63.1906 14.9406L64.7939 14.1172C64.9064 14.4712 65.1275 14.7823 65.4269 15.0077C65.7262 15.2331 66.0892 15.3617 66.4658 15.3759C67.083 15.3759 67.5912 15.1059 67.5912 14.5201C67.5912 14.0666 67.3025 13.831 66.6366 13.6299L65.6285 13.3107C64.2117 12.8571 63.4957 12.0689 63.4957 10.9276C63.4957 9.38142 64.809 8.40821 66.376 8.40821C67.0119 8.39329 67.6383 8.56176 68.1781 8.89285C68.7179 9.22395 69.1475 9.70322 69.414 10.2716L67.8319 11.1125C67.7225 10.8127 67.5277 10.5503 67.2707 10.3566C67.0137 10.163 66.7054 10.0463 66.3828 10.0205C65.8198 10.0205 65.3768 10.306 65.3768 10.7764C65.3768 11.1631 65.684 11.4642 66.3143 11.6659L67.3045 11.9852C68.8742 12.5062 69.5058 13.2945 69.5058 14.3871C69.5058 16.0656 68.0719 17.0395 66.4343 17.0395C65.7373 17.0731 65.0476 16.888 64.4646 16.5107C63.8815 16.1334 63.4354 15.5836 63.1906 14.9406ZM34.683 12.7235C34.6975 11.5706 35.1731 10.4698 36.0066 9.65963C36.8401 8.84943 37.9645 8.39511 39.136 8.39511C40.3076 8.39511 41.4319 8.84943 42.2655 9.65963C43.099 10.4698 43.5746 11.5706 43.5891 12.7235C43.5746 13.8764 43.099 14.9772 42.2655 15.7874C41.4319 16.5976 40.3076 17.0519 39.136 17.0519C37.9645 17.0519 36.8401 16.5976 36.0066 15.7874C35.1731 14.9772 34.6975 13.8764 34.683 12.7235ZM36.6436 12.7235C36.6325 13.0524 36.6887 13.38 36.809 13.687C36.9292 13.994 37.1109 14.2741 37.3434 14.5106C37.5758 14.7471 37.8542 14.9351 38.162 15.0635C38.4698 15.192 38.8007 15.2581 39.135 15.2581C39.4693 15.2581 39.8002 15.192 40.108 15.0635C40.4158 14.9351 40.6942 14.7471 40.9267 14.5106C41.1591 14.2741 41.3409 13.994 41.4611 13.687C41.5813 13.38 41.6375 13.0524 41.6264 12.7235C41.6375 12.3947 41.5813 12.067 41.4611 11.76C41.3409 11.453 41.1591 11.1729 40.9267 10.9364C40.6942 10.7 40.4158 10.5119 40.108 10.3835C39.8002 10.2551 39.4693 10.1889 39.135 10.1889C38.8007 10.1889 38.4698 10.2551 38.162 10.3835C37.8542 10.5119 37.5758 10.7 37.3434 10.9364C37.1109 11.1729 36.9292 11.453 36.809 11.76C36.6887 12.067 36.6325 12.3947 36.6436 12.7235ZM27.1196 12.7235C27.1017 12.1491 27.204 11.5772 27.4202 11.0434C27.6364 10.5096 27.9619 10.0252 28.3765 9.62049C28.791 9.21575 29.2857 8.89927 29.8299 8.69071C30.374 8.48216 30.9559 8.386 31.5394 8.40821C32.3252 8.39949 33.0984 8.60279 33.775 8.99605V10.9276C33.1884 10.4633 32.4627 10.2024 31.7101 10.1852C31.3689 10.1777 31.0297 10.2381 30.7127 10.3626C30.3957 10.4872 30.1075 10.6734 29.8654 10.9101C29.6232 11.1469 29.4321 11.4292 29.3034 11.7404C29.1748 12.0515 29.1112 12.385 29.1166 12.7208C29.1093 13.0573 29.1715 13.3917 29.2995 13.7038C29.4274 14.0159 29.6184 14.2992 29.861 14.5364C30.1035 14.7737 30.3924 14.9601 30.7103 15.0842C31.0281 15.2083 31.3683 15.2676 31.7101 15.2584C32.4698 15.2287 33.202 14.971 33.8086 14.5201V16.4517C33.111 16.8389 32.3231 17.041 31.5222 17.0381C30.939 17.0628 30.3569 16.9683 29.8127 16.7605C29.2685 16.5526 28.7739 16.2361 28.3603 15.8307C27.9466 15.4254 27.6228 14.9401 27.4092 14.4054C27.1957 13.8707 27.0971 13.2976 27.1196 12.7235ZM0 12.1694V5.08366H2.04703V12.0864C2.04703 13.8999 2.96871 15.0917 4.6756 15.0917C6.38249 15.0917 7.30211 13.8999 7.30211 12.0864V5.08366H9.3512V12.1701C9.3512 15.0722 7.62648 17.0388 4.6756 17.0388C1.72472 17.0388 0 15.0735 0 12.1694ZM57.9567 16.0076L53.3175 10.715C53.2585 10.6478 53.18 10.6 53.0926 10.578C53.0052 10.5559 52.913 10.5607 52.8284 10.5917C52.7439 10.6227 52.671 10.6784 52.6195 10.7514C52.568 10.8243 52.5405 10.911 52.5405 10.9998V16.8384H50.5607V10.9998C50.5605 10.5134 50.7116 10.0385 50.9937 9.63904C51.2758 9.23958 51.6754 8.93464 52.1387 8.76521C52.6021 8.59577 53.107 8.56994 53.5857 8.69119C54.0644 8.81245 54.4939 9.07498 54.8166 9.44351L59.4565 14.7354C59.5157 14.8021 59.5942 14.8494 59.6814 14.871C59.7687 14.8926 59.8605 14.8874 59.9447 14.8562C60.0289 14.825 60.1014 14.7693 60.1525 14.6964C60.2037 14.6236 60.2309 14.5371 60.2308 14.4486V8.61001H62.2113V14.4486C62.2144 14.9355 62.0645 15.4115 61.7822 15.8114C61.4998 16.2113 61.0988 16.5155 60.634 16.6825C60.3613 16.7836 60.0723 16.8357 59.7809 16.8364C59.434 16.8361 59.0914 16.7619 58.7765 16.6188C58.4616 16.4758 58.1819 16.2672 57.9567 16.0076ZM23.9143 16.8377V8.61001H25.8934V16.8384L23.9143 16.8377ZM18.0982 16.0076L13.4597 10.715C13.4007 10.6478 13.3222 10.6 13.2348 10.578C13.1474 10.5559 13.0552 10.5607 12.9706 10.5917C12.8861 10.6227 12.8132 10.6784 12.7617 10.7514C12.7102 10.8243 12.6827 10.911 12.6827 10.9998V16.8384H10.7022V10.9998C10.7021 10.5132 10.8533 10.0382 11.1355 9.6387C11.4177 9.23915 11.8174 8.93418 12.2809 8.76474C12.7444 8.5953 13.2495 8.56952 13.7283 8.69085C14.2071 8.81219 14.6367 9.07484 14.9595 9.44351L19.5973 14.7361C19.6563 14.8034 19.7349 14.8513 19.8225 14.8733C19.91 14.8952 20.0023 14.8902 20.0869 14.8588C20.1714 14.8274 20.2441 14.7713 20.2952 14.6979C20.3462 14.6245 20.3731 14.5375 20.3723 14.4486V8.61001H22.3528V14.4486C22.3559 14.9355 22.206 15.4115 21.9237 15.8114C21.6413 16.2113 21.2403 16.5155 20.7755 16.6825C20.5028 16.7837 20.2138 16.8358 19.9224 16.8364C19.5755 16.8361 19.2329 16.7619 18.918 16.6188C18.6031 16.4758 18.3234 16.2672 18.0982 16.0076ZM44.8146 16.8364V8.61001H46.7594V10.0205C46.9717 9.54602 47.3211 9.14337 47.764 8.8627C48.207 8.58203 48.7241 8.43572 49.2509 8.44196C49.4717 8.44196 49.5937 8.45883 49.6253 8.49257V10.4734C49.4623 10.4132 49.2877 10.3902 49.1144 10.4059C47.6647 10.4059 46.7766 11.5141 46.7766 13.2101V16.8364H44.8146ZM23.6749 6.20871C23.6733 5.97054 23.7437 5.73727 23.8772 5.53857C24.0106 5.33988 24.2011 5.18473 24.4244 5.09288C24.6477 5.00102 24.8937 4.9766 25.1312 5.02273C25.3686 5.06885 25.5867 5.18343 25.7578 5.3519C25.9289 5.52037 26.0452 5.73511 26.0919 5.96881C26.1387 6.20251 26.1137 6.4446 26.0203 6.66431C25.9268 6.88401 25.769 7.0714 25.5671 7.20262C25.3651 7.33385 25.128 7.403 24.886 7.40126C24.5654 7.39896 24.2586 7.27256 24.032 7.04939C23.8054 6.82622 23.6771 6.52423 23.6749 6.20871Z" fill="#808080"/>
</g>
<defs>
<filter id="filter0_i_553_3289" x="0" y="5" width="72" height="29" filterUnits="userSpaceOnUse" color-interpolation-filters="sRGB">
<feFlood flood-opacity="0" result="BackgroundImageFix"/>
<feBlend mode="normal" in="SourceGraphic" in2="BackgroundImageFix" result="shape"/>
<feColorMatrix in="SourceAlpha" type="matrix" values="0 0 0 0 0 0 0 0 0 0 0 0 0 0 0 0 0 0 127 0" result="hardAlpha"/>
<feOffset dy="2"/>
<feGaussianBlur stdDeviation="1.05"/>
<feComposite in2="hardAlpha" operator="arithmetic" k2="-1" k3="1"/>
<feColorMatrix type="matrix" values="0 0 0 0 0 0 0 0 0 0 0 0 0 0 0 0 0 0 0.28 0"/>
<feBlend mode="normal" in2="shape" result="effect1_innerShadow_553_3289"/>
</filter>
</defs>
</svg>
