<svg width="43" height="36" viewBox="0 0 43 36" fill="none" xmlns="http://www.w3.org/2000/svg">
<g filter="url(#filter0_i_553_3291)">
<path fill-rule="evenodd" clip-rule="evenodd" d="M1.3991 31.9195H7.51678V27.3598H6.11686V17.3503H7.51678V12.5068H0V17.3503H1.3991V27.3598H0V31.9195H1.3991ZM23.9888 31.9195H30.0262V27.3598H28.7066V19.964L32.7047 25.2935L36.6832 19.964V27.3598H35.484V31.9195H43V27.3598H41.4214V17.3503H42.8803V12.5068H36.6832L32.7047 17.8363L28.7066 12.5068H22.5299V17.3503H23.9888V27.3598H22.5299V31.9195H23.9888ZM17.1318 12.5068H20.8701V17.3503H17.272V17.2889L17.2523 17.2283V17.1678L17.2318 17.1064L17.2121 17.0458L17.1925 16.9853L17.172 16.9247L17.1523 16.8633L17.0925 16.7422L17.0318 16.641L17.0121 16.6004L16.972 16.5597L16.9523 16.5191L16.9121 16.4785L16.8326 16.3573L16.7327 16.2354L16.6925 16.1749L16.6327 16.1342L16.5925 16.0737L16.5523 16.033L16.4925 15.9924L16.4523 15.9517L16.3925 15.9111L16.3327 15.8704L16.2728 15.8298L16.2122 15.8099L16.1327 15.7692L16.0729 15.7286L15.8524 15.668L15.6532 15.6075L15.4532 15.5668L15.2532 15.5461H15.0532L14.8729 15.5668L14.6729 15.5867L14.5131 15.6274L14.3336 15.6879L14.1738 15.7692L14.014 15.8505L13.8738 15.9318L13.7533 16.033L13.6336 16.1541L13.514 16.2761L13.414 16.3972L13.3337 16.539L13.2542 16.6808L13.214 16.8227L13.1738 16.9853L13.1337 17.1271V17.2889L13.1542 17.4515L13.1738 17.6132L13.214 17.7758L13.2935 17.9375L13.3738 18.0794L13.4935 18.2411L13.614 18.4037L13.7738 18.5456L13.9533 18.6874L14.1533 18.8292L14.3533 18.9504L14.5533 19.0524L14.7729 19.1536L15.0131 19.2548L15.2532 19.356L15.513 19.4572L15.7729 19.5584L16.0524 19.6397L16.6122 19.8421L17.1925 20.0246L17.472 20.1258L17.7719 20.2477L18.0514 20.3489L18.3514 20.4708L18.6317 20.5919L18.9112 20.7139L19.1915 20.8557L19.4513 20.9976L19.7112 21.1593L19.9505 21.3418L20.1906 21.5035L20.4103 21.7068L20.6308 21.9092L20.8308 22.1323L21.0103 22.3546L21.1906 22.6184L21.3299 22.8822L21.4701 23.1659L21.5898 23.4495L21.6701 23.773L21.7897 24.4018L21.8897 24.9891L21.9299 25.5772L21.9496 26.1446L21.9102 26.6713L21.8504 27.1773L21.7299 27.6841L21.6102 28.1503L21.4299 28.5957L21.2299 29.0014L21.0103 29.407L20.7505 29.7711L20.4906 30.1162L20.1906 30.4198L19.8505 30.7234L19.5112 30.9673L19.1514 31.2103L18.7711 31.4127L18.3916 31.5952L17.9719 31.737L17.5719 31.8382L17.1318 31.9394L16.6925 31.9801L16.2523 32H15.813L15.3532 31.9602L14.9131 31.8789L14.4533 31.7777L13.9935 31.6359L13.5541 31.4534L13.0943 31.251L12.6542 30.9872L12.5944 30.9266V31.9195H8.4364V25.2529H12.414V25.3333L12.4345 25.374V25.4553L12.4542 25.4752V25.5366L12.4739 25.5971L12.4944 25.6378V25.6983L12.514 25.7589L12.5345 25.8202L12.5542 25.8609V25.8808L12.5739 25.9214V25.982L12.6542 26.1446L12.7345 26.3262L12.814 26.4681L12.8943 26.6099L12.9943 26.7518L13.0943 26.8538L13.1943 26.9749L13.2935 27.0761L13.414 27.1574L13.5337 27.2387L13.6541 27.3191L13.7738 27.3805L13.8935 27.4411L14.014 27.4817L14.1336 27.5224L14.2738 27.563L14.3934 27.5829L14.5131 27.6028L14.6533 27.6236H15.0131L15.1327 27.6028L15.2532 27.5829L15.3729 27.563L15.4729 27.5423L15.5729 27.5016L15.6729 27.461L15.7729 27.4411L15.8524 27.3805L15.9327 27.3399L16.013 27.2793L16.0729 27.2387L16.1327 27.1773L16.1925 27.1168L16.2523 27.0562L16.3122 26.9956L16.3523 26.9343L16.3925 26.8538L16.4327 26.7924L16.4728 26.712L16.5122 26.6307L16.5327 26.5494L16.5523 26.4888L16.5925 26.4075V26.3262L16.6122 26.2458L16.6327 26.1446V25.9007L16.6122 25.8202V25.739L16.5925 25.6577L16.572 25.5772L16.5523 25.4959L16.5122 25.4146L16.4925 25.3333L16.4523 25.2529L16.4122 25.1915L16.3523 25.111L16.3122 25.0496L16.2523 24.9891L16.1925 24.9078L16.1524 24.8879L16.113 24.8472L16.0524 24.8066L15.9925 24.746L15.913 24.7054L15.8327 24.6449L15.7327 24.6042L15.6532 24.5437L15.5532 24.4823L15.4327 24.4217L15.3327 24.3612L15.2131 24.3205L15.0729 24.26L14.9532 24.1986L14.8131 24.1588L14.6729 24.0974L14.2533 23.9555L13.8336 23.8137L13.5935 23.7332L13.3738 23.6519L13.1542 23.5707L12.914 23.4894L12.6739 23.3882L12.4345 23.3077L12.1944 23.2057L11.9542 23.0846L11.7346 22.9834L11.4944 22.8614L11.2551 22.7403L11.0346 22.5985L10.815 22.4566L10.5953 22.3148L10.3756 22.1522L10.1756 21.9905L9.97566 21.808L9.77567 21.6255L9.59535 21.4231L9.41586 21.2199L9.23554 20.9976L9.07571 20.7744L8.93555 20.5314L8.81589 20.2676L8.69622 20.0046L8.57574 19.721L8.49624 19.4165L8.41591 19.1129L8.33641 18.728L8.27658 18.3432L8.23642 17.9782L8.21592 17.6339V17.269L8.23642 16.9247L8.27658 16.6004L8.31592 16.2761L8.37575 15.9716L8.47575 15.6481L8.55607 15.3644L8.67573 15.0808L8.81589 14.817L8.95605 14.5532L9.0962 14.2902L9.2757 14.0671L9.45602 13.8241L9.65519 13.6217L9.85517 13.4184L10.0757 13.216L10.2953 13.0336L10.5355 12.8718L10.7953 12.73L11.0551 12.5881L11.3149 12.4662L11.5944 12.365L11.8747 12.2638L12.1747 12.1825L12.4739 12.1219L12.7739 12.0614L13.0943 12.0406L13.414 12.0207L13.6738 12H14.3934L14.5336 12.0207H14.6729L14.8336 12.0406L14.9729 12.0614L15.1327 12.0813L15.2729 12.102L15.4131 12.1219L15.5729 12.1626L15.713 12.2032L15.8925 12.2638L16.0925 12.3243L16.1925 12.365L16.2728 12.4056L16.3728 12.4463L16.4728 12.4869L16.5523 12.5276L16.6523 12.5881L16.7327 12.6288L16.8122 12.6893L16.8925 12.7499L16.972 12.8112L17.0523 12.8718L17.1121 12.9324H17.1318V12.5068Z" fill="#808080"/>
</g>
<defs>
<filter id="filter0_i_553_3291" x="0" y="12" width="43" height="22" filterUnits="userSpaceOnUse" color-interpolation-filters="sRGB">
<feFlood flood-opacity="0" result="BackgroundImageFix"/>
<feBlend mode="normal" in="SourceGraphic" in2="BackgroundImageFix" result="shape"/>
<feColorMatrix in="SourceAlpha" type="matrix" values="0 0 0 0 0 0 0 0 0 0 0 0 0 0 0 0 0 0 127 0" result="hardAlpha"/>
<feOffset dy="2"/>
<feGaussianBlur stdDeviation="1.05"/>
<feComposite in2="hardAlpha" operator="arithmetic" k2="-1" k3="1"/>
<feColorMatrix type="matrix" values="0 0 0 0 0 0 0 0 0 0 0 0 0 0 0 0 0 0 0.28 0"/>
<feBlend mode="normal" in2="shape" result="effect1_innerShadow_553_3291"/>
</filter>
</defs>
</svg>
