<svg width="14" height="14" viewBox="0 0 14 14" fill="none" xmlns="http://www.w3.org/2000/svg">
<path d="M7.00258 7H7.00783M9.33329 7H9.33854M4.67188 7H4.67711" stroke="#141414" stroke-width="1.33" stroke-linecap="round" stroke-linejoin="round"/>
<path d="M12.5413 6.99992C12.5413 10.0605 10.0602 12.5416 6.99967 12.5416C6.04995 12.5416 5.15599 12.3027 4.37467 11.8817C3.28487 11.2944 2.55154 11.8404 1.90479 11.9383C1.80669 11.9532 1.70898 11.9175 1.63882 11.8474C1.53233 11.7409 1.51206 11.5762 1.57088 11.4376C1.82472 10.8393 2.05779 9.70554 1.74 8.74992C1.55706 8.19984 1.45801 7.61143 1.45801 6.99992C1.45801 3.93934 3.93909 1.45825 6.99967 1.45825C10.0602 1.45825 12.5413 3.93934 12.5413 6.99992Z" stroke="#141414" stroke-width="1.17" stroke-linecap="round" stroke-linejoin="round"/>
</svg>
