<svg width="57" height="36" viewBox="0 0 57 36" fill="none" xmlns="http://www.w3.org/2000/svg">
<g clip-path="url(#clip0_553_3293)">
<g filter="url(#filter0_i_553_3293)">
<path d="M28.7637 8C27.118 8 26.0488 8.94702 26.0488 10.4833C26.0488 12.0196 27.1495 12.9666 28.7637 12.9666C30.378 12.9666 31.4786 12.0196 31.4786 10.4833C31.4786 8.94702 30.4094 8 28.7637 8Z" fill="#808080"/>
<path d="M31.1633 13.7031H26.4883V29.2868H31.1633V13.7031Z" fill="#808080"/>
<path d="M21.5833 16.3022V13.7031H16.9082V29.2868H21.5833V21.0162C21.5833 19.3852 22.5476 18.3645 24.1619 18.3645H25.4931V13.7031H24.5078C23.0822 13.7031 22.055 14.4818 21.5833 16.3022Z" fill="#808080"/>
<path d="M38.323 10.3992H35.063L34.9687 11.1989C34.7276 13.377 33.868 14.3556 32.0127 14.9659V17.8911H33.627V24.4466C33.627 27.9716 35.2412 29.2974 38.3859 29.2974H41.2056V25.1621H39.5389C38.8052 25.1621 38.323 24.8254 38.323 23.8468V17.8911H41.3418V13.7032H38.323V10.3992Z" fill="#808080"/>
<path d="M8.65829 13.4506C7.05451 13.4506 5.61845 13.9451 4.67506 14.9027V8.95752H0V21.4897C0 27.0455 3.58491 29.5604 8.02936 29.5604C13.26 29.5604 16.1216 25.8039 16.1216 21.4897C16.1216 16.5442 13.0398 13.4506 8.65829 13.4506ZM8.02936 25.3619C5.89099 25.3619 4.69602 23.7836 4.69602 21.4897C4.69602 19.1958 5.75472 17.5859 7.99791 17.5859C10.1677 17.5859 11.2998 19.1958 11.2998 21.4897C11.3103 23.752 10.283 25.3619 8.02936 25.3619Z" fill="#808080"/>
<path d="M56.9925 21.2265C56.9925 16.5651 54.1204 13.4504 49.3615 13.4504C44.8332 13.4504 41.7305 16.9123 41.7305 21.5737C41.7305 26.5508 44.98 29.5602 49.7074 29.5602C53.5963 29.5602 56.133 27.1401 56.8143 23.9308H52.2651C51.8877 24.9409 50.9024 25.4249 49.4663 25.4249C47.6424 25.4249 46.7724 24.52 46.5732 23.0363H56.9296C56.9925 22.4261 57.0135 21.8263 56.9925 21.2265ZM46.6885 19.7428C46.8038 18.4907 47.7368 17.3543 49.3615 17.3543C51.0701 17.3543 52.0345 18.4591 52.1498 19.7428H46.6885Z" fill="#808080"/>
</g>
</g>
<defs>
<filter id="filter0_i_553_3293" x="0" y="8" width="57" height="23.5603" filterUnits="userSpaceOnUse" color-interpolation-filters="sRGB">
<feFlood flood-opacity="0" result="BackgroundImageFix"/>
<feBlend mode="normal" in="SourceGraphic" in2="BackgroundImageFix" result="shape"/>
<feColorMatrix in="SourceAlpha" type="matrix" values="0 0 0 0 0 0 0 0 0 0 0 0 0 0 0 0 0 0 127 0" result="hardAlpha"/>
<feOffset dy="2"/>
<feGaussianBlur stdDeviation="1.05"/>
<feComposite in2="hardAlpha" operator="arithmetic" k2="-1" k3="1"/>
<feColorMatrix type="matrix" values="0 0 0 0 0 0 0 0 0 0 0 0 0 0 0 0 0 0 0.28 0"/>
<feBlend mode="normal" in2="shape" result="effect1_innerShadow_553_3293"/>
</filter>
<clipPath id="clip0_553_3293">
<rect width="57" height="36" fill="white" transform="matrix(-1 0 0 1 57 0)"/>
</clipPath>
</defs>
</svg>
