<svg width="62" height="35" viewBox="0 0 62 35" fill="none" xmlns="http://www.w3.org/2000/svg">
<g filter="url(#filter0_i_553_3315)">
<path d="M3.00492 30.3179C3.71191 30.3373 4.40639 30.5102 5.03977 30.8248L7.3656 31.9805C9.08723 32.8347 11.1096 32.8333 12.8291 31.9763L15.1244 30.8318C16.4918 30.1505 18.0996 30.1498 19.4677 30.8297L20.9192 31.552C23.1797 32.6756 25.8348 32.6805 28.0995 31.5651L29.626 30.8137C30.9899 30.1421 32.5886 30.1456 33.9491 30.8227L35.3978 31.5443C37.6653 32.6729 40.3308 32.6756 42.6003 31.5513L44.072 30.8214C44.6227 30.5484 45.2193 30.3824 45.8318 30.3317L47.3201 27.2142C45.7186 26.9975 44.0893 27.2656 42.6413 27.983L41.1697 28.7129C39.8037 29.3893 38.2001 29.3879 36.8354 28.7087L35.386 27.9872C33.1248 26.8621 30.4684 26.8565 28.2023 27.9712L26.6758 28.7233C25.3125 29.3942 23.7145 29.3907 22.354 28.7143L20.9025 27.992C18.6302 26.8628 15.9592 26.8635 13.6875 27.9955L11.3915 29.14C10.5755 29.547 9.61573 29.547 8.79902 29.1421L6.47388 27.9865C5.3002 27.4031 4.0022 27.1135 2.69171 27.1434L3.00562 30.3165L3.00492 30.3179ZM48.068 32.0992V31.9429C48.6993 30.8693 50.4598 26.9975 51.114 25.3863L51.2717 25.0064L47.3701 16.7531C46.5346 14.9642 46.2193 14.3155 45.7005 13.7557V13.6224H51.6321V13.7557C51.4745 13.8453 51.362 14.1585 51.362 14.4266C51.362 14.9412 51.6099 15.4781 51.7002 15.7468L53.7975 20.8687H53.8878L55.624 16.3281C55.872 15.6795 56.0755 14.919 56.0755 14.4051C56.0755 14.0474 55.8949 13.8231 55.8046 13.7564V13.6217H60V13.7564C59.5715 14.4051 58.7819 16.2392 58.1506 17.7379L52.2169 32.0999H48.0673L48.068 32.0992ZM39.8918 24.3862V24.2515C40.321 23.5133 40.4565 23.0438 40.4565 22.059V11.9897C40.4565 11.2125 40.2578 10.4785 39.9599 10.1132V9.97705C41.1391 9.89232 44.1109 8.67072 44.9845 7.87137L45.1616 7.95748C44.9526 8.58947 44.7866 10.5701 44.7866 11.6612V21.7916C44.7866 22.6639 44.9672 23.4917 45.3505 24.2744V24.3869H39.8918V24.3862ZM33.2262 24.38V24.246C33.6547 23.5077 33.7901 23.0382 33.7901 22.0535V17.0434C33.7901 16.2837 33.6324 15.4308 33.2935 15.0065V14.8718C34.3894 14.7996 37.2841 13.7252 38.0077 13.062L38.1202 13.1293V21.7854C38.1202 22.6577 38.3008 23.4848 38.6841 24.2682V24.38H33.2262ZM38.1202 11.3459C37.4236 11.9668 34.8596 13.0745 33.6554 13.2196V9.72773C34.7325 9.46243 37.3528 8.36515 38.1202 7.854V11.3459ZM18.6864 21.3826C18.6864 19.3248 20.356 18.7435 22.7464 18.4303C24.5284 18.1838 27.2126 17.9157 27.2126 17.0212C27.2126 16.2385 26.107 15.9031 24.5965 15.9031C22.679 15.9031 21.0553 16.4399 20.0629 16.9323V13.9571C21.6415 13.4655 23.2652 13.2196 25.5889 13.2196C28.4759 13.2196 31.5434 13.846 31.5434 17.5365V21.518C31.5434 22.4577 31.6115 23.3522 32.0844 24.2689V24.3807H27.2126V22.4347C26.5813 23.464 25.2285 24.6717 22.9499 24.6717C20.4692 24.6717 18.6871 23.3744 18.6871 21.3833L18.6864 21.3826ZM23.0631 20.9131C23.0631 21.9194 23.7166 22.2771 24.6409 22.2771C25.5653 22.2771 26.6487 21.9194 27.2126 21.4048V18.8554C26.6709 19.3248 25.4083 19.5714 24.4381 19.7054C23.4902 19.8617 23.0624 20.2422 23.0624 20.9131H23.0631ZM9.48795 24.6481C6.23984 24.6481 4.24458 24.0876 2.3271 23.439L2 19.9957L2.11251 19.9506C3.9397 21.0242 6.87182 21.6062 9.10529 21.6062C11.5186 21.6062 12.4888 21.0242 12.4888 20.152C12.4888 19.3693 11.3839 19.1686 10.5269 19.0338L7.03086 18.4526C4.61613 18.0498 2.00069 17.1553 2.00069 14.1356C2.00069 10.534 5.78981 8.94643 9.96228 8.94643C12.511 8.94643 15.0591 9.32701 16.6384 10.1097L15.3987 13.1064C13.684 12.2564 11.5415 11.8536 9.85047 11.8536C7.70729 11.8536 6.87251 12.4133 6.87251 13.1293C6.87251 13.9565 7.86563 14.1356 8.69971 14.2697L11.8798 14.8065C15.1501 15.3211 17.4731 16.3948 17.4731 19.1679C17.4731 23.082 13.5486 24.6481 9.48864 24.6481H9.48795Z" fill="#808080"/>
</g>
<defs>
<filter id="filter0_i_553_3315" x="2" y="7.854" width="58" height="26.7661" filterUnits="userSpaceOnUse" color-interpolation-filters="sRGB">
<feFlood flood-opacity="0" result="BackgroundImageFix"/>
<feBlend mode="normal" in="SourceGraphic" in2="BackgroundImageFix" result="shape"/>
<feColorMatrix in="SourceAlpha" type="matrix" values="0 0 0 0 0 0 0 0 0 0 0 0 0 0 0 0 0 0 127 0" result="hardAlpha"/>
<feOffset dy="2"/>
<feGaussianBlur stdDeviation="1.05"/>
<feComposite in2="hardAlpha" operator="arithmetic" k2="-1" k3="1"/>
<feColorMatrix type="matrix" values="0 0 0 0 0 0 0 0 0 0 0 0 0 0 0 0 0 0 0.28 0"/>
<feBlend mode="normal" in2="shape" result="effect1_innerShadow_553_3315"/>
</filter>
</defs>
</svg>
