<svg width="106" height="106" viewBox="0 0 106 106" fill="none" xmlns="http://www.w3.org/2000/svg">
<path d="M99.002 51.2646C99.002 56.2352 94.9725 60.2646 90.002 60.2646H69.2646C64.2941 60.2646 60.2646 64.2941 60.2646 69.2646V90.0039C60.2646 94.9745 56.2352 99.0039 51.2646 99.0039H16C11.0294 99.0039 7 94.9745 7 90.0039V54.7383C7 49.7677 11.0294 45.7383 16 45.7383H36.7363C41.7069 45.7383 45.7363 41.7088 45.7363 36.7383V16C45.7363 11.0294 49.7658 7 54.7363 7H90.002C94.9725 7 99.002 11.0294 99.002 16V51.2646Z" fill="url(#paint0_linear_590_2909)"/>
<path d="M54.7363 8H90.002C94.4202 8 98.002 11.5817 98.002 16V51.2646C98.002 55.6829 94.4202 59.2646 90.002 59.2646H69.2646C63.7418 59.2646 59.2646 63.7418 59.2646 69.2646V90.0039C59.2646 94.4222 55.6829 98.0039 51.2646 98.0039H16C11.5817 98.0039 8 94.4222 8 90.0039V54.7383C8 50.32 11.5817 46.7383 16 46.7383H36.7363C42.2592 46.7383 46.7363 42.2611 46.7363 36.7383V16C46.7363 11.5817 50.3181 8 54.7363 8Z" stroke="white" stroke-opacity="0.1" stroke-width="2"/>
<defs>
<linearGradient id="paint0_linear_590_2909" x1="62.7274" y1="8.21523" x2="27.0156" y2="95.9808" gradientUnits="userSpaceOnUse">
<stop stop-color="#FC6262"/>
<stop offset="1" stop-color="#5F0EEC"/>
</linearGradient>
</defs>
</svg>
