<svg width="92" height="92" viewBox="0 0 92 92" fill="none" xmlns="http://www.w3.org/2000/svg">
<path d="M92.002 44.2646C92.002 49.2352 87.9725 53.2646 83.002 53.2646H62.2646C57.2941 53.2646 53.2646 57.2941 53.2646 62.2646V83.0039C53.2646 87.9745 49.2352 92.0039 44.2646 92.0039H9C4.02944 92.0039 0 87.9745 0 83.0039V47.7383C0 42.7677 4.02944 38.7383 9 38.7383H29.7363C34.7069 38.7383 38.7363 34.7088 38.7363 29.7383V9C38.7363 4.02944 42.7658 0 47.7363 0H83.002C87.9725 0 92.002 4.02944 92.002 9V44.2646Z" fill="url(#paint0_linear_278_308)"/>
<path d="M47.7363 1H83.002C87.4202 1 91.002 4.58172 91.002 9V44.2646C91.002 48.6829 87.4202 52.2646 83.002 52.2646H62.2646C56.7418 52.2646 52.2646 56.7418 52.2646 62.2646V83.0039C52.2646 87.4222 48.6829 91.0039 44.2646 91.0039H9C4.58172 91.0039 1 87.4222 1 83.0039V47.7383C1 43.32 4.58172 39.7383 9 39.7383H29.7363C35.2592 39.7383 39.7363 35.2611 39.7363 29.7383V9C39.7363 4.58172 43.3181 1 47.7363 1Z" stroke="white" stroke-opacity="0.1" stroke-width="2"/>
<defs>
<linearGradient id="paint0_linear_278_308" x1="55.7274" y1="1.21523" x2="20.0156" y2="88.9808" gradientUnits="userSpaceOnUse">
<stop stop-color="#FC6262"/>
<stop offset="1" stop-color="#5F0EEC"/>
</linearGradient>
</defs>
</svg>
