<svg width="417" height="111" viewBox="0 0 417 111" fill="none" xmlns="http://www.w3.org/2000/svg">
<path d="M165.871 44.6662H153.652C153.304 42.6624 152.661 40.8873 151.724 39.3409C150.788 37.7727 149.623 36.4441 148.229 35.3551C146.835 34.2661 145.245 33.4493 143.459 32.9048C141.695 32.3385 139.789 32.0554 137.741 32.0554C134.104 32.0554 130.881 32.9702 128.071 34.7997C125.261 36.6075 123.062 39.2647 121.472 42.7713C119.882 46.2562 119.087 50.5142 119.087 55.5455C119.087 60.6638 119.882 64.9763 121.472 68.483C123.083 71.9678 125.283 74.6032 128.071 76.3892C130.881 78.1534 134.093 79.0355 137.709 79.0355C139.713 79.0355 141.586 78.7741 143.328 78.2514C145.092 77.7069 146.671 76.9119 148.065 75.8665C149.481 74.821 150.668 73.536 151.626 72.0114C152.607 70.4867 153.282 68.7443 153.652 66.7841L165.871 66.8494C165.413 70.0294 164.422 73.0133 162.898 75.8011C161.395 78.589 159.424 81.0502 156.984 83.1847C154.545 85.2973 151.692 86.9527 148.425 88.1506C145.158 89.3267 141.531 89.9148 137.545 89.9148C131.665 89.9148 126.416 88.5535 121.798 85.831C117.181 83.1084 113.544 79.1771 110.886 74.0369C108.229 68.8968 106.901 62.733 106.901 55.5455C106.901 48.3362 108.24 42.1723 110.919 37.054C113.598 31.9138 117.246 27.9825 121.864 25.2599C126.481 22.5374 131.708 21.1761 137.545 21.1761C141.27 21.1761 144.733 21.6989 147.935 22.7443C151.136 23.7898 153.99 25.3253 156.494 27.3509C158.999 29.3546 161.057 31.8158 162.669 34.7344C164.303 37.6312 165.37 40.9418 165.871 44.6662ZM193.737 89.9801C188.836 89.9801 184.589 88.902 180.996 86.7457C177.402 84.5895 174.614 81.5729 172.632 77.696C170.672 73.8191 169.692 69.2888 169.692 64.1051C169.692 58.9214 170.672 54.3802 172.632 50.4815C174.614 46.5829 177.402 43.5554 180.996 41.3991C184.589 39.2429 188.836 38.1648 193.737 38.1648C198.638 38.1648 202.885 39.2429 206.478 41.3991C210.072 43.5554 212.849 46.5829 214.809 50.4815C216.791 54.3802 217.782 58.9214 217.782 64.1051C217.782 69.2888 216.791 73.8191 214.809 77.696C212.849 81.5729 210.072 84.5895 206.478 86.7457C202.885 88.902 198.638 89.9801 193.737 89.9801ZM193.802 80.5057C196.46 80.5057 198.681 79.776 200.467 78.3168C202.253 76.8357 203.582 74.8537 204.453 72.3707C205.346 69.8878 205.792 67.1217 205.792 64.0724C205.792 61.0014 205.346 58.2244 204.453 55.7415C203.582 53.2367 202.253 51.2438 200.467 49.7628C198.681 48.2817 196.46 47.5412 193.802 47.5412C191.08 47.5412 188.815 48.2817 187.007 49.7628C185.221 51.2438 183.881 53.2367 182.988 55.7415C182.117 58.2244 181.682 61.0014 181.682 64.0724C181.682 67.1217 182.117 69.8878 182.988 72.3707C183.881 74.8537 185.221 76.8357 187.007 78.3168C188.815 79.776 191.08 80.5057 193.802 80.5057ZM234.127 59.5966V89H222.3V38.8182H233.604V47.3452H234.192C235.347 44.5355 237.187 42.303 239.714 40.6477C242.262 38.9924 245.409 38.1648 249.156 38.1648C252.619 38.1648 255.635 38.9053 258.205 40.3864C260.797 41.8674 262.801 44.0128 264.217 46.8224C265.654 49.6321 266.362 53.0407 266.34 57.0483V89H254.514V58.8778C254.514 55.5237 253.642 52.8991 251.9 51.0043C250.179 49.1094 247.794 48.1619 244.745 48.1619C242.676 48.1619 240.835 48.6193 239.224 49.5341C237.634 50.4271 236.381 51.723 235.467 53.4219C234.574 55.1207 234.127 57.179 234.127 59.5966ZM297.901 38.8182V47.9659H269.053V38.8182H297.901ZM276.175 26.7955H288.002V73.9062C288.002 75.4962 288.242 76.7159 288.721 77.5653C289.222 78.393 289.875 78.9593 290.681 79.2642C291.487 79.5691 292.38 79.7216 293.36 79.7216C294.101 79.7216 294.776 79.6671 295.386 79.5582C296.017 79.4493 296.496 79.3513 296.823 79.2642L298.816 88.5099C298.184 88.7277 297.28 88.9673 296.104 89.2287C294.95 89.4901 293.534 89.6425 291.857 89.6861C288.895 89.7732 286.227 89.3267 283.853 88.3466C281.479 87.3447 279.595 85.7983 278.201 83.7074C276.829 81.6165 276.154 79.0028 276.175 75.8665V26.7955ZM315.177 22.0909V89H303.35V22.0909H315.177ZM344.034 89.9801C339.003 89.9801 334.658 88.9347 330.999 86.8438C327.362 84.7311 324.563 81.7472 322.603 77.892C320.642 74.0152 319.662 69.4522 319.662 64.2031C319.662 59.0412 320.642 54.5109 322.603 50.6122C324.585 46.6918 327.351 43.6425 330.901 41.4645C334.451 39.2647 338.622 38.1648 343.414 38.1648C346.507 38.1648 349.425 38.6657 352.169 39.6676C354.936 40.6477 357.375 42.1723 359.488 44.2415C361.622 46.3106 363.299 48.946 364.519 52.1477C365.739 55.3277 366.348 59.1174 366.348 63.517V67.1435H325.216V59.1719H355.012C354.99 56.9067 354.5 54.892 353.542 53.1278C352.583 51.3419 351.244 49.937 349.523 48.9134C347.824 47.8897 345.842 47.3778 343.577 47.3778C341.159 47.3778 339.036 47.9659 337.206 49.142C335.377 50.2964 333.95 51.821 332.927 53.7159C331.925 55.589 331.413 57.6473 331.391 59.8906V66.8494C331.391 69.768 331.925 72.2727 332.992 74.3636C334.059 76.4328 335.551 78.0227 337.468 79.1335C339.384 80.2225 341.628 80.767 344.198 80.767C345.918 80.767 347.476 80.5275 348.87 80.0483C350.264 79.5473 351.472 78.8177 352.496 77.8594C353.52 76.901 354.293 75.714 354.816 74.2983L365.858 75.5398C365.161 78.4583 363.833 81.0066 361.873 83.1847C359.934 85.3409 357.451 87.018 354.424 88.2159C351.396 89.392 347.933 89.9801 344.034 89.9801ZM411.416 52.0824L400.634 53.2585C400.329 52.1695 399.796 51.1458 399.034 50.1875C398.293 49.2292 397.291 48.456 396.028 47.8679C394.765 47.2798 393.218 46.9858 391.389 46.9858C388.928 46.9858 386.858 47.5194 385.181 48.5866C383.526 49.6539 382.709 51.0369 382.731 52.7358C382.709 54.1951 383.243 55.3821 384.332 56.2969C385.443 57.2116 387.272 57.9631 389.821 58.5511L398.38 60.3807C403.128 61.4044 406.657 63.027 408.965 65.2486C411.296 67.4702 412.472 70.3778 412.494 73.9716C412.472 77.1297 411.546 79.9176 409.717 82.3352C407.909 84.7311 405.393 86.6042 402.17 87.9545C398.946 89.3049 395.244 89.9801 391.062 89.9801C384.92 89.9801 379.976 88.6951 376.23 86.125C372.483 83.5331 370.251 79.9285 369.532 75.3111L381.065 74.2003C381.588 76.4654 382.698 78.1752 384.397 79.3295C386.096 80.4839 388.307 81.0611 391.029 81.0611C393.839 81.0611 396.093 80.4839 397.792 79.3295C399.513 78.1752 400.373 76.7486 400.373 75.0497C400.373 73.6122 399.818 72.4252 398.707 71.4886C397.618 70.5521 395.919 69.8333 393.61 69.3324L385.051 67.5355C380.237 66.5336 376.676 64.8456 374.367 62.4716C372.059 60.0758 370.915 57.0483 370.937 53.3892C370.915 50.2964 371.754 47.6174 373.453 45.3523C375.173 43.0653 377.558 41.3011 380.607 40.0597C383.678 38.7964 387.218 38.1648 391.225 38.1648C397.106 38.1648 401.734 39.4171 405.11 41.9219C408.508 44.4266 410.61 47.8134 411.416 52.0824Z" fill="#141414"/>
<mask id="path-2-inside-1_278_351" fill="white">
<path d="M81.999 52.4736C81.999 57.4442 77.9696 61.4736 72.999 61.4736H56.4736C51.5031 61.4736 47.4736 65.5031 47.4736 70.4736V87.001C47.4736 91.9715 43.4442 96.001 38.4736 96.001H9C4.02944 96.001 0 91.9715 0 87.001V57.5273C0 52.5568 4.02944 48.5273 9 48.5273H25.5254C30.496 48.5273 34.5254 44.4979 34.5254 39.5273V23C34.5254 18.0294 38.5548 14 43.5254 14H72.999C77.9696 14 81.999 18.0294 81.999 23V52.4736Z"/>
</mask>
<path d="M81.999 52.4736C81.999 57.4442 77.9696 61.4736 72.999 61.4736H56.4736C51.5031 61.4736 47.4736 65.5031 47.4736 70.4736V87.001C47.4736 91.9715 43.4442 96.001 38.4736 96.001H9C4.02944 96.001 0 91.9715 0 87.001V57.5273C0 52.5568 4.02944 48.5273 9 48.5273H25.5254C30.496 48.5273 34.5254 44.4979 34.5254 39.5273V23C34.5254 18.0294 38.5548 14 43.5254 14H72.999C77.9696 14 81.999 18.0294 81.999 23V52.4736Z" fill="url(#paint0_linear_278_351)"/>
<path d="M81.999 52.4736C81.999 57.4442 77.9696 61.4736 72.999 61.4736H56.4736C51.5031 61.4736 47.4736 65.5031 47.4736 70.4736V87.001C47.4736 91.9715 43.4442 96.001 38.4736 96.001H9C4.02944 96.001 0 91.9715 0 87.001V57.5273C0 52.5568 4.02944 48.5273 9 48.5273H25.5254C30.496 48.5273 34.5254 44.4979 34.5254 39.5273V23C34.5254 18.0294 38.5548 14 43.5254 14H72.999C77.9696 14 81.999 18.0294 81.999 23V52.4736Z" fill="url(#paint1_linear_278_351)"/>
<path d="M81.999 52.4736C81.999 57.4442 77.9696 61.4736 72.999 61.4736H56.4736C51.5031 61.4736 47.4736 65.5031 47.4736 70.4736V87.001C47.4736 91.9715 43.4442 96.001 38.4736 96.001H9C4.02944 96.001 0 91.9715 0 87.001V57.5273C0 52.5568 4.02944 48.5273 9 48.5273H25.5254C30.496 48.5273 34.5254 44.4979 34.5254 39.5273V23C34.5254 18.0294 38.5548 14 43.5254 14H72.999C77.9696 14 81.999 18.0294 81.999 23V52.4736Z" fill="url(#paint2_linear_278_351)"/>
<path d="M81.999 52.4736C81.999 57.4442 77.9696 61.4736 72.999 61.4736H56.4736C51.5031 61.4736 47.4736 65.5031 47.4736 70.4736V87.001C47.4736 91.9715 43.4442 96.001 38.4736 96.001H9C4.02944 96.001 0 91.9715 0 87.001V57.5273C0 52.5568 4.02944 48.5273 9 48.5273H25.5254C30.496 48.5273 34.5254 44.4979 34.5254 39.5273V23C34.5254 18.0294 38.5548 14 43.5254 14H72.999C77.9696 14 81.999 18.0294 81.999 23V52.4736Z" fill="url(#paint3_linear_278_351)"/>
<path d="M72.999 61.4736V59.4736H56.4736V61.4736V63.4736H72.999V61.4736ZM47.4736 70.4736H45.4736V87.001H47.4736H49.4736V70.4736H47.4736ZM38.4736 96.001V94.001H9V96.001V98.001H38.4736V96.001ZM0 87.001H2V57.5273H0H-2V87.001H0ZM9 48.5273V50.5273H25.5254V48.5273V46.5273H9V48.5273ZM34.5254 39.5273H36.5254V23H34.5254H32.5254V39.5273H34.5254ZM43.5254 14V16H72.999V14V12H43.5254V14ZM81.999 23H79.999V52.4736H81.999H83.999V23H81.999ZM72.999 14V16C76.865 16 79.999 19.134 79.999 23H81.999H83.999C83.999 16.9249 79.0742 12 72.999 12V14ZM34.5254 23H36.5254C36.5254 19.134 39.6594 16 43.5254 16V14V12C37.4503 12 32.5254 16.9249 32.5254 23H34.5254ZM25.5254 48.5273V50.5273C31.6005 50.5273 36.5254 45.6025 36.5254 39.5273H34.5254H32.5254C32.5254 43.3933 29.3914 46.5273 25.5254 46.5273V48.5273ZM0 57.5273H2C2 53.6614 5.13401 50.5273 9 50.5273V48.5273V46.5273C2.92487 46.5273 -2 51.4522 -2 57.5273H0ZM9 96.001V94.001C5.13401 94.001 2 90.867 2 87.001H0H-2C-2 93.0761 2.92487 98.001 9 98.001V96.001ZM47.4736 87.001H45.4736C45.4736 90.867 42.3396 94.001 38.4736 94.001V96.001V98.001C44.5488 98.001 49.4736 93.0761 49.4736 87.001H47.4736ZM56.4736 61.4736V59.4736C50.3985 59.4736 45.4736 64.3985 45.4736 70.4736H47.4736H49.4736C49.4736 66.6076 52.6076 63.4736 56.4736 63.4736V61.4736ZM72.999 61.4736V63.4736C79.0742 63.4736 83.999 58.5488 83.999 52.4736H81.999H79.999C79.999 56.3396 76.865 59.4736 72.999 59.4736V61.4736Z" fill="white" fill-opacity="0.1" mask="url(#path-2-inside-1_278_351)"/>
<defs>
<linearGradient id="paint0_linear_278_351" x1="49.6684" y1="15.0831" x2="17.8393" y2="93.3065" gradientUnits="userSpaceOnUse">
<stop stop-color="#F56969"/>
<stop offset="1" stop-color="#511AB0"/>
</linearGradient>
<linearGradient id="paint1_linear_278_351" x1="49.6684" y1="15.0831" x2="17.8393" y2="93.3065" gradientUnits="userSpaceOnUse">
<stop stop-color="#FC6262"/>
<stop offset="1" stop-color="#4D0BBF"/>
</linearGradient>
<linearGradient id="paint2_linear_278_351" x1="49.6684" y1="15.0831" x2="17.8393" y2="93.3065" gradientUnits="userSpaceOnUse">
<stop stop-color="#FC6262"/>
<stop offset="1" stop-color="#5F0EEC"/>
</linearGradient>
<linearGradient id="paint3_linear_278_351" x1="49.6684" y1="15.0831" x2="17.8393" y2="93.3065" gradientUnits="userSpaceOnUse">
<stop stop-color="#FC6262"/>
<stop offset="1" stop-color="#5F0EEC"/>
</linearGradient>
</defs>
</svg>
